<svg width="18" height="18" xmlns="http://www.w3.org/2000/svg"><defs><mask fill="#fff" id="a"><path d="M3.042 16.48h1.27l1.082-1.082-2.792-2.792-1.081 1.081v1.271h1.52v1.521zm7.402-10.825a.275.275 0 00.083-.202c0-.174-.087-.26-.262-.26a.275.275 0 00-.202.082l-6.44 6.44a.275.275 0 00-.082.202c0 .174.087.261.261.261.08 0 .147-.028.202-.083l6.44-6.44zM0 13.057l9.885-9.885 4.943 4.943L4.943 18H0v-4.943zm17.56-9.825c.293.309.44.669.44 1.08 0 .42-.147.777-.44 1.07l-1.972 1.972-4.942-4.942 1.972-1.96A1.412 1.412 0 0113.688 0c.419 0 .78.15 1.08.451l2.792 2.78z" fill-rule="evenodd"/></mask></defs><g fill="none"><path d="M3.042 16.48h1.27l1.082-1.082-2.792-2.792-1.081 1.081v1.271h1.52v1.521zm7.402-10.825a.275.275 0 00.083-.202c0-.174-.087-.26-.262-.26a.275.275 0 00-.202.082l-6.44 6.44a.275.275 0 00-.082.202c0 .174.087.261.261.261.08 0 .147-.028.202-.083l6.44-6.44zM0 13.057l9.885-9.885 4.943 4.943L4.943 18H0v-4.943zm17.56-9.825c.293.309.44.669.44 1.08 0 .42-.147.777-.44 1.07l-1.972 1.972-4.942-4.942 1.972-1.96A1.412 1.412 0 0113.688 0c.419 0 .78.15 1.08.451l2.792 2.78z"/><path d="M3.042 16.48h1.27l1.082-1.082-2.792-2.792-1.081 1.081v1.271h1.52v1.521zm7.402-10.825a.275.275 0 00.083-.202c0-.174-.087-.26-.262-.26a.275.275 0 00-.202.082l-6.44 6.44a.275.275 0 00-.082.202c0 .174.087.261.261.261.08 0 .147-.028.202-.083l6.44-6.44z" stroke-width="4" stroke="#51af92" stroke-opacity=".996" mask="url(#a)"/><path d="M0 13.057l9.885-9.885 4.943 4.943L4.943 18H0v-4.943zm17.56-9.825c.293.309.44.669.44 1.08 0 .42-.147.777-.44 1.07l-1.972 1.972-4.942-4.942 1.972-1.96A1.412 1.412 0 0113.688 0c.419 0 .78.15 1.08.451l2.792 2.78z" stroke-width="4" stroke="#51af92" stroke-opacity=".996" mask="url(#a)"/></g></svg>