<svg width="15" height="10" xmlns="http://www.w3.org/2000/svg"><defs><mask fill="#fff" id="a"><path d="M6.103 9.145a.17.17 0 00.02.105c0 .02.003.073.009.156a1.085 1.085 0 01-.024.39.248.248 0 01-.096.153.334.334 0 01-.196.051h-3.06c-.76 0-1.409-.22-1.948-.66C.27 8.9 0 8.37 0 7.75v-5.5C0 1.63.27 1.1.808.66 1.348.22 1.996 0 2.755 0h3.061a.33.33 0 01.216.074c.06.05.09.108.09.176 0 .02.004.073.01.156a1.085 1.085 0 01-.024.39.248.248 0 01-.096.153.334.334 0 01-.196.051h-3.06c-.422 0-.782.122-1.082.367-.3.245-.45.54-.45.883v5.5c0 .344.15.638.45.883.3.245.66.367 1.081.367H5.74l.11.008c.073.005.11.013.11.023s.025.025.076.043c.051.018.074.042.067.07zm8.715-4.497A.442.442 0 0115 5c0 .135-.06.253-.182.352l-5.204 4.25a.66.66 0 01-.43.148.66.66 0 01-.43-.148.442.442 0 01-.183-.352V7H4.286a.66.66 0 01-.43-.148.442.442 0 01-.183-.352v-3c0-.135.061-.253.182-.352A.66.66 0 014.285 3h4.286V.75c0-.135.061-.253.182-.352a.66.66 0 01.43-.148c.166 0 .31.05.431.148l5.204 4.25z" fill-rule="evenodd"/></mask></defs><g fill="none"><path d="M6.103 9.145a.17.17 0 00.02.105c0 .02.003.073.009.156a1.085 1.085 0 01-.024.39.248.248 0 01-.096.153.334.334 0 01-.196.051h-3.06c-.76 0-1.409-.22-1.948-.66C.27 8.9 0 8.37 0 7.75v-5.5C0 1.63.27 1.1.808.66 1.348.22 1.996 0 2.755 0h3.061a.33.33 0 01.216.074c.06.05.09.108.09.176 0 .02.004.073.01.156a1.085 1.085 0 01-.024.39.248.248 0 01-.096.153.334.334 0 01-.196.051h-3.06c-.422 0-.782.122-1.082.367-.3.245-.45.54-.45.883v5.5c0 .344.15.638.45.883.3.245.66.367 1.081.367H5.74l.11.008c.073.005.11.013.11.023s.025.025.076.043c.051.018.074.042.067.07zm8.715-4.497A.442.442 0 0115 5c0 .135-.06.253-.182.352l-5.204 4.25a.66.66 0 01-.43.148.66.66 0 01-.43-.148.442.442 0 01-.183-.352V7H4.286a.66.66 0 01-.43-.148.442.442 0 01-.183-.352v-3c0-.135.061-.253.182-.352A.66.66 0 014.285 3h4.286V.75c0-.135.061-.253.182-.352a.66.66 0 01.43-.148c.166 0 .31.05.431.148l5.204 4.25z"/><path d="M6.103 9.145a.17.17 0 00.02.105c0 .02.003.073.009.156a1.085 1.085 0 01-.024.39.248.248 0 01-.096.153.334.334 0 01-.196.051h-3.06c-.76 0-1.409-.22-1.948-.66C.27 8.9 0 8.37 0 7.75v-5.5C0 1.63.27 1.1.808.66 1.348.22 1.996 0 2.755 0h3.061a.33.33 0 01.216.074c.06.05.09.108.09.176 0 .02.004.073.01.156a1.085 1.085 0 01-.024.39.248.248 0 01-.096.153.334.334 0 01-.196.051h-3.06c-.422 0-.782.122-1.082.367-.3.245-.45.54-.45.883v5.5c0 .344.15.638.45.883.3.245.66.367 1.081.367H5.74l.11.008c.073.005.11.013.11.023s.025.025.076.043c.051.018.074.042.067.07z" stroke-width="2" stroke="#8087a7" mask="url(#a)"/><path d="M14.818 4.648A.442.442 0 0115 5c0 .135-.06.253-.182.352l-5.204 4.25a.66.66 0 01-.43.148.66.66 0 01-.43-.148.442.442 0 01-.183-.352V7H4.286a.66.66 0 01-.43-.148.442.442 0 01-.183-.352v-3c0-.135.061-.253.182-.352A.66.66 0 014.285 3h4.286V.75c0-.135.061-.253.182-.352a.66.66 0 01.43-.148c.166 0 .31.05.431.148l5.204 4.25z" stroke-width="2" stroke="#8087a7" mask="url(#a)"/></g></svg>