<svg width="19" height="18" xmlns="http://www.w3.org/2000/svg"><defs><mask fill="#fff" id="a"><path d="M18.799 5.974A.713.713 0 0119 6.48a.713.713 0 01-.201.506l-5.429 5.76a.634.634 0 01-.477.214.634.634 0 01-.477-.214.713.713 0 01-.202-.506V9.36H9.84c-.692 0-1.313.023-1.86.068a12.56 12.56 0 00-1.633.241 5.823 5.823 0 00-1.41.479c-.4.202-.773.463-1.119.781a3.89 3.89 0 00-.848 1.137c-.22.438-.39.958-.514 1.558-.124.6-.186 1.278-.186 2.036 0 .413.018.874.053 1.384 0 .045.009.133.026.264.018.131.027.23.027.298 0 .113-.03.206-.09.281a.302.302 0 01-.25.113c-.112 0-.211-.064-.296-.191a1.287 1.287 0 01-.138-.248 22.85 22.85 0 01-.254-.607C.449 14.816 0 13.125 0 11.88c0-1.493.187-2.741.562-3.746C1.707 5.11 4.799 3.6 9.839 3.6h2.375V.72a.71.71 0 01.202-.506.634.634 0 01.477-.214c.184 0 .343.071.477.214l5.429 5.76z" fill-rule="evenodd"/></mask></defs><g fill="none"><path d="M18.799 5.974A.713.713 0 0119 6.48a.713.713 0 01-.201.506l-5.429 5.76a.634.634 0 01-.477.214.634.634 0 01-.477-.214.713.713 0 01-.202-.506V9.36H9.84c-.692 0-1.313.023-1.86.068a12.56 12.56 0 00-1.633.241 5.823 5.823 0 00-1.41.479c-.4.202-.773.463-1.119.781a3.89 3.89 0 00-.848 1.137c-.22.438-.39.958-.514 1.558-.124.6-.186 1.278-.186 2.036 0 .413.018.874.053 1.384 0 .045.009.133.026.264.018.131.027.23.027.298 0 .113-.03.206-.09.281a.302.302 0 01-.25.113c-.112 0-.211-.064-.296-.191a1.287 1.287 0 01-.138-.248 22.85 22.85 0 01-.254-.607C.449 14.816 0 13.125 0 11.88c0-1.493.187-2.741.562-3.746C1.707 5.11 4.799 3.6 9.839 3.6h2.375V.72a.71.71 0 01.202-.506.634.634 0 01.477-.214c.184 0 .343.071.477.214l5.429 5.76z"/><path d="M18.799 5.974A.713.713 0 0119 6.48a.713.713 0 01-.201.506l-5.429 5.76a.634.634 0 01-.477.214.634.634 0 01-.477-.214.713.713 0 01-.202-.506V9.36H9.84c-.692 0-1.313.023-1.86.068a12.56 12.56 0 00-1.633.241 5.823 5.823 0 00-1.41.479c-.4.202-.773.463-1.119.781a3.89 3.89 0 00-.848 1.137c-.22.438-.39.958-.514 1.558-.124.6-.186 1.278-.186 2.036 0 .413.018.874.053 1.384 0 .045.009.133.026.264.018.131.027.23.027.298 0 .113-.03.206-.09.281a.302.302 0 01-.25.113c-.112 0-.211-.064-.296-.191a1.287 1.287 0 01-.138-.248 22.85 22.85 0 01-.254-.607C.449 14.816 0 13.125 0 11.88c0-1.493.187-2.741.562-3.746C1.707 5.11 4.799 3.6 9.839 3.6h2.375V.72a.71.71 0 01.202-.506.634.634 0 01.477-.214c.184 0 .343.071.477.214l5.429 5.76z" stroke-width="4" stroke="#51af92" stroke-opacity=".996" mask="url(#a)"/></g></svg>