<svg width="20" height="15" xmlns="http://www.w3.org/2000/svg"><defs><mask fill="#fff" id="a"><path d="M15.17 6.973a.687.687 0 01.247.527.687.687 0 01-.248.527l-7.083 6.375a.847.847 0 01-.586.223.847.847 0 01-.586-.223.687.687 0 01-.247-.527V10.5H.833a.847.847 0 01-.586-.223A.687.687 0 010 9.75v-4.5c0-.203.082-.379.247-.527A.847.847 0 01.833 4.5h5.834V1.125c0-.203.082-.379.247-.527A.847.847 0 017.5.375c.226 0 .421.074.586.223l7.083 6.375zM18.9.99c.733.66 1.1 1.455 1.1 2.385v8.25c0 .93-.367 1.725-1.1 2.385-.734.66-1.617.99-2.65.99h-4.167a.423.423 0 01-.293-.111.344.344 0 01-.123-.264c0-.031-.005-.11-.013-.234a1.782 1.782 0 01.033-.586.377.377 0 01.13-.229.423.423 0 01.266-.076h4.167c.573 0 1.063-.184 1.471-.55.408-.368.612-.81.612-1.325v-8.25c0-.516-.204-.957-.612-1.324A2.123 2.123 0 0016.25 1.5h-4.063l-.15-.012c-.1-.008-.149-.02-.149-.035 0-.016-.035-.037-.104-.064-.07-.028-.1-.063-.091-.106a.278.278 0 00-.026-.158c0-.031-.005-.11-.013-.234a1.782 1.782 0 01.033-.586.377.377 0 01.13-.229.423.423 0 01.266-.076h4.167c1.033 0 1.916.33 2.65.99z" fill-rule="evenodd"/></mask></defs><g fill="none"><path d="M15.17 6.973a.687.687 0 01.247.527.687.687 0 01-.248.527l-7.083 6.375a.847.847 0 01-.586.223.847.847 0 01-.586-.223.687.687 0 01-.247-.527V10.5H.833a.847.847 0 01-.586-.223A.687.687 0 010 9.75v-4.5c0-.203.082-.379.247-.527A.847.847 0 01.833 4.5h5.834V1.125c0-.203.082-.379.247-.527A.847.847 0 017.5.375c.226 0 .421.074.586.223l7.083 6.375zM18.9.99c.733.66 1.1 1.455 1.1 2.385v8.25c0 .93-.367 1.725-1.1 2.385-.734.66-1.617.99-2.65.99h-4.167a.423.423 0 01-.293-.111.344.344 0 01-.123-.264c0-.031-.005-.11-.013-.234a1.782 1.782 0 01.033-.586.377.377 0 01.13-.229.423.423 0 01.266-.076h4.167c.573 0 1.063-.184 1.471-.55.408-.368.612-.81.612-1.325v-8.25c0-.516-.204-.957-.612-1.324A2.123 2.123 0 0016.25 1.5h-4.063l-.15-.012c-.1-.008-.149-.02-.149-.035 0-.016-.035-.037-.104-.064-.07-.028-.1-.063-.091-.106a.278.278 0 00-.026-.158c0-.031-.005-.11-.013-.234a1.782 1.782 0 01.033-.586.377.377 0 01.13-.229.423.423 0 01.266-.076h4.167c1.033 0 1.916.33 2.65.99z"/><path d="M15.17 6.973a.687.687 0 01.247.527.687.687 0 01-.248.527l-7.083 6.375a.847.847 0 01-.586.223.847.847 0 01-.586-.223.687.687 0 01-.247-.527V10.5H.833a.847.847 0 01-.586-.223A.687.687 0 010 9.75v-4.5c0-.203.082-.379.247-.527A.847.847 0 01.833 4.5h5.834V1.125c0-.203.082-.379.247-.527A.847.847 0 017.5.375c.226 0 .421.074.586.223l7.083 6.375z" stroke-width="2" stroke="#fff" mask="url(#a)"/><path d="M18.9.99c.733.66 1.1 1.455 1.1 2.385v8.25c0 .93-.367 1.725-1.1 2.385-.734.66-1.617.99-2.65.99h-4.167a.423.423 0 01-.293-.111.344.344 0 01-.123-.264c0-.031-.005-.11-.013-.234a1.782 1.782 0 01.033-.586.377.377 0 01.13-.229.423.423 0 01.266-.076h4.167c.573 0 1.063-.184 1.471-.55.408-.368.612-.81.612-1.325v-8.25c0-.516-.204-.957-.612-1.324A2.123 2.123 0 0016.25 1.5h-4.063l-.15-.012c-.1-.008-.149-.02-.149-.035 0-.016-.035-.037-.104-.064-.07-.028-.1-.063-.091-.106a.278.278 0 00-.026-.158c0-.031-.005-.11-.013-.234a1.782 1.782 0 01.033-.586.377.377 0 01.13-.229.423.423 0 01.266-.076h4.167c1.033 0 1.916.33 2.65.99z" stroke-width="2" stroke="#fff" mask="url(#a)"/></g></svg>