<svg width="15" height="15" xmlns="http://www.w3.org/2000/svg"><defs><mask fill="#fff" id="a"><path d="M11.71 8.838c.05.058.076.133.076.225v3.124c0 .775-.236 1.438-.708 1.988-.471.55-1.039.825-1.703.825H2.411c-.664 0-1.232-.275-1.704-.825C.236 13.625 0 12.962 0 12.187V4.063c0-.775.236-1.438.707-1.988.472-.55 1.04-.825 1.704-.825h5.893c.078 0 .142.03.192.088.05.058.075.133.075.224v.625a.333.333 0 01-.075.225.242.242 0 01-.192.088H2.41c-.369 0-.684.153-.946.459a1.639 1.639 0 00-.394 1.103v8.125c0 .43.132.798.394 1.104.262.306.577.459.946.459h6.964c.368 0 .684-.153.946-.459a1.64 1.64 0 00.393-1.104V9.063c0-.092.025-.167.076-.225a.242.242 0 01.192-.088h.536c.078 0 .142.03.192.088zM14.841.186c.106.123.159.27.159.439v5c0 .17-.053.316-.159.44a.482.482 0 01-.377.185.482.482 0 01-.376-.186l-1.474-1.718-5.457 6.367a.248.248 0 01-.193.098.248.248 0 01-.192-.098L5.818 9.6a.335.335 0 01-.084-.225c0-.085.028-.16.084-.225l5.457-6.367-1.473-1.719a.653.653 0 01-.16-.439c0-.17.054-.316.16-.44A.482.482 0 0110.179 0h4.285c.145 0 .27.062.377.186z" fill-rule="evenodd"/></mask></defs><g fill="none"><path d="M11.71 8.838c.05.058.076.133.076.225v3.124c0 .775-.236 1.438-.708 1.988-.471.55-1.039.825-1.703.825H2.411c-.664 0-1.232-.275-1.704-.825C.236 13.625 0 12.962 0 12.187V4.063c0-.775.236-1.438.707-1.988.472-.55 1.04-.825 1.704-.825h5.893c.078 0 .142.03.192.088.05.058.075.133.075.224v.625a.333.333 0 01-.075.225.242.242 0 01-.192.088H2.41c-.369 0-.684.153-.946.459a1.639 1.639 0 00-.394 1.103v8.125c0 .43.132.798.394 1.104.262.306.577.459.946.459h6.964c.368 0 .684-.153.946-.459a1.64 1.64 0 00.393-1.104V9.063c0-.092.025-.167.076-.225a.242.242 0 01.192-.088h.536c.078 0 .142.03.192.088zM14.841.186c.106.123.159.27.159.439v5c0 .17-.053.316-.159.44a.482.482 0 01-.377.185.482.482 0 01-.376-.186l-1.474-1.718-5.457 6.367a.248.248 0 01-.193.098.248.248 0 01-.192-.098L5.818 9.6a.335.335 0 01-.084-.225c0-.085.028-.16.084-.225l5.457-6.367-1.473-1.719a.653.653 0 01-.16-.439c0-.17.054-.316.16-.44A.482.482 0 0110.179 0h4.285c.145 0 .27.062.377.186z"/><path d="M11.71 8.838c.05.058.076.133.076.225v3.124c0 .775-.236 1.438-.708 1.988-.471.55-1.039.825-1.703.825H2.411c-.664 0-1.232-.275-1.704-.825C.236 13.625 0 12.962 0 12.187V4.063c0-.775.236-1.438.707-1.988.472-.55 1.04-.825 1.704-.825h5.893c.078 0 .142.03.192.088.05.058.075.133.075.224v.625a.333.333 0 01-.075.225.242.242 0 01-.192.088H2.41c-.369 0-.684.153-.946.459a1.639 1.639 0 00-.394 1.103v8.125c0 .43.132.798.394 1.104.262.306.577.459.946.459h6.964c.368 0 .684-.153.946-.459a1.64 1.64 0 00.393-1.104V9.063c0-.092.025-.167.076-.225a.242.242 0 01.192-.088h.536c.078 0 .142.03.192.088z" stroke-width="2" stroke="#8087a7" mask="url(#a)"/><path d="M14.841.186c.106.123.159.27.159.439v5c0 .17-.053.316-.159.44a.482.482 0 01-.377.185.482.482 0 01-.376-.186l-1.474-1.718-5.457 6.367a.248.248 0 01-.193.098.248.248 0 01-.192-.098L5.818 9.6a.335.335 0 01-.084-.225c0-.085.028-.16.084-.225l5.457-6.367-1.473-1.719a.653.653 0 01-.16-.439c0-.17.054-.316.16-.44A.482.482 0 0110.179 0h4.285c.145 0 .27.062.377.186z" stroke-width="2" stroke="#8087a7" mask="url(#a)"/></g></svg>