<svg width="15" height="15" xmlns="http://www.w3.org/2000/svg"><defs><mask fill="#fff" id="a"><path d="M9.06 7.314a.626.626 0 00.17-.439.626.626 0 00-.17-.44.534.534 0 00-.406-.185H6.346a.534.534 0 00-.405.186.626.626 0 00-.172.439c0 .17.057.316.172.44a.535.535 0 00.405.185h2.308a.534.534 0 00.405-.186zm5.192-2.753c.114.123.171.27.171.439v9.375c0 .17-.057.316-.171.44a.534.534 0 01-.406.185H1.154a.534.534 0 01-.406-.186.626.626 0 01-.171-.439V5c0-.17.057-.316.171-.44a.534.534 0 01.406-.185h12.692c.156 0 .292.062.406.186zm.577-4.375c.114.123.171.27.171.439v2.5c0 .17-.057.316-.171.44-.114.123-.25.185-.406.435H.577C.42 3.75.285 3.688.17 3.564A.626.626 0 010 3.125v-2.5c0-.17.057-.316.171-.44A.534.534 0 01.577 0h13.846c.156 0 .292.062.406.186z" fill-rule="evenodd"/></mask></defs><g fill="none"><path d="M9.06 7.314a.626.626 0 00.17-.439.626.626 0 00-.17-.44.534.534 0 00-.406-.185H6.346a.534.534 0 00-.405.186.626.626 0 00-.172.439c0 .17.057.316.172.44a.535.535 0 00.405.185h2.308a.534.534 0 00.405-.186zm5.192-2.753c.114.123.171.27.171.439v9.375c0 .17-.057.316-.171.44a.534.534 0 01-.406.185H1.154a.534.534 0 01-.406-.186.626.626 0 01-.171-.439V5c0-.17.057-.316.171-.44a.534.534 0 01.406-.185h12.692c.156 0 .292.062.406.186zm.577-4.375c.114.123.171.27.171.439v2.5c0 .17-.057.316-.171.44-.114.123-.25.185-.406.435H.577C.42 3.75.285 3.688.17 3.564A.626.626 0 010 3.125v-2.5c0-.17.057-.316.171-.44A.534.534 0 01.577 0h13.846c.156 0 .292.062.406.186z"/><path d="M9.06 7.314a.626.626 0 00.17-.439.626.626 0 00-.17-.44.534.534 0 00-.406-.185H6.346a.534.534 0 00-.405.186.626.626 0 00-.172.439c0 .17.057.316.172.44a.535.535 0 00.405.185h2.308a.534.534 0 00.405-.186z" stroke-width="2" stroke="#000" mask="url(#a)"/><path d="M14.252 4.56c.114.124.171.27.171.44v9.375c0 .17-.057.316-.171.44a.534.534 0 01-.406.185H1.154a.534.534 0 01-.406-.186.626.626 0 01-.171-.439V5c0-.17.057-.316.171-.44a.534.534 0 01.406-.185h12.692c.156 0 .292.062.406.186zm.577-4.374c.114.123.171.27.171.439v2.5c0 .17-.057.316-.171.44-.114.123-.25.185-.406.435H.577C.42 3.75.285 3.688.17 3.564A.626.626 0 010 3.125v-2.5c0-.17.057-.316.171-.44A.534.534 0 01.577 0h13.846c.156 0 .292.062.406.186z" stroke-width="2" stroke="#000" mask="url(#a)"/></g></svg>