<svg width="30" height="30" xmlns="http://www.w3.org/2000/svg"><path d="M28.428 9.97A12.79 12.79 0 0130 16.154c0 1.875-.397 3.666-1.191 5.372a13.957 13.957 0 01-3.204 4.418c-1.34 1.237-2.936 2.223-4.785 2.956-1.849.733-3.789 1.1-5.82 1.1s-3.971-.367-5.82-1.1c-1.85-.733-3.444-1.719-4.785-2.956a13.957 13.957 0 01-3.204-4.418A12.586 12.586 0 010 16.154c0-2.188.524-4.249 1.572-6.184C2.62 8.035 4.095 6.412 5.996 5.102a2.623 2.623 0 011.865-.45c.684.084 1.228.384 1.631.9.417.506.576 1.074.479 1.705-.098.63-.42 1.138-.967 1.523-1.276.89-2.262 1.977-2.96 3.263A8.502 8.502 0 005 16.153a8.4 8.4 0 00.791 3.58A9.293 9.293 0 007.93 22.68c.898.83 1.963 1.488 3.193 1.974 1.23.487 2.523.73 3.877.73 1.354 0 2.646-.243 3.877-.73 1.23-.486 2.295-1.144 3.193-1.974a9.293 9.293 0 002.139-2.947 8.4 8.4 0 00.791-3.58 8.502 8.502 0 00-1.045-4.11c-.697-1.286-1.683-2.374-2.959-3.263-.547-.385-.869-.892-.967-1.523-.097-.631.062-1.2.479-1.704.403-.517.95-.817 1.64-.902.69-.084 1.309.067 1.856.451 1.9 1.31 3.376 2.933 4.424 4.868zM16.758.685c.495.457.742.998.242 1.623v11.538c.5.625.253 1.166-.242 1.623a2.505 2.505 0 01-1.758.685 2.505 2.505 0 01-1.758-.685c-.495-.457-.742-.998-.242-1.623V2.308c-.5-.625-.253-1.166.242-1.623A2.505 2.505 0 0115 0c.677 0 1.263.228 1.758.685z" fill="#51af92"/></svg>