<svg width="10" height="10" xmlns="http://www.w3.org/2000/svg"><path d="M9.764 7.475a.78.78 0 01.236.572.78.78 0 01-.236.573L8.62 9.764a.78.78 0 01-.573.236.78.78 0 01-.572-.236L5 7.29 2.525 9.764a.78.78 0 01-.572.236.78.78 0 01-.573-.236L.236 8.62A.78.78 0 010 8.047a.78.78 0 01.236-.572L2.71 5 .236 2.525A.78.78 0 010 1.953a.78.78 0 01.236-.573L1.38.236A.78.78 0 011.953 0a.78.78 0 01.572.236L5 2.71 7.475.236A.78.78 0 018.047 0a.78.78 0 01.573.236L9.764 1.38a.78.78 0 01.236.573.78.78 0 01-.236.572L7.29 5l2.474 2.475z" fill="#8087a7"/></svg>