<svg width="12" height="12" xmlns="http://www.w3.org/2000/svg"><defs><mask fill="#fff" id="a"><path d="M2.028 10.986h.847l.721-.72-1.861-1.862-.721.72v.848h1.014v1.014zM6.962 3.77a.183.183 0 00.056-.134c0-.117-.058-.175-.174-.175a.183.183 0 00-.135.056L2.416 7.81a.183.183 0 00-.056.135c0 .116.058.174.175.174a.183.183 0 00.134-.056L6.962 3.77zM0 8.705l6.59-6.59L9.885 5.41 3.295 12H0V8.705zm11.707-6.55c.195.205.293.446.293.72a.97.97 0 01-.293.713l-1.315 1.315-3.295-3.295L8.412.3c.19-.2.428-.301.713-.301.28 0 .52.1.72.301l1.862 1.853z" fill-rule="evenodd"/></mask></defs><g fill="none"><path d="M2.028 10.986h.847l.721-.72-1.861-1.862-.721.72v.848h1.014v1.014zM6.962 3.77a.183.183 0 00.056-.134c0-.117-.058-.175-.174-.175a.183.183 0 00-.135.056L2.416 7.81a.183.183 0 00-.056.135c0 .116.058.174.175.174a.183.183 0 00.134-.056L6.962 3.77zM0 8.705l6.59-6.59L9.885 5.41 3.295 12H0V8.705zm11.707-6.55c.195.205.293.446.293.72a.97.97 0 01-.293.713l-1.315 1.315-3.295-3.295L8.412.3c.19-.2.428-.301.713-.301.28 0 .52.1.72.301l1.862 1.853z"/><path d="M2.028 10.986h.847l.721-.72-1.861-1.862-.721.72v.848h1.014v1.014zM6.962 3.77a.183.183 0 00.056-.134c0-.117-.058-.175-.174-.175a.183.183 0 00-.135.056L2.416 7.81a.183.183 0 00-.056.135c0 .116.058.174.175.174a.183.183 0 00.134-.056L6.962 3.77z" stroke-width="4" stroke="#000" stroke-opacity=".996" mask="url(#a)"/><path d="M0 8.705l6.59-6.59L9.885 5.41 3.295 12H0V8.705zm11.707-6.551c.195.206.293.447.293.721a.97.97 0 01-.293.713l-1.315 1.315-3.295-3.295L8.412.3c.19-.2.428-.301.713-.301.28 0 .52.1.72.301l1.862 1.853z" stroke-width="4" stroke="#000" stroke-opacity=".996" mask="url(#a)"/></g></svg>