<svg width="15" height="15" xmlns="http://www.w3.org/2000/svg"><defs><mask fill="#fff" id="a"><path d="M14.766 10.273a.986.986 0 01.234.665v3.124c0 .26-.078.482-.234.665a.724.724 0 01-.57.273h-2.678a.724.724 0 01-.57-.273.986.986 0 01-.234-.665v-3.124c0-.26.078-.482.235-.665a.724.724 0 01.569-.273h.803V8.125H8.036V10h.803c.223 0 .413.091.57.273a.986.986 0 01.234.665v3.124c0 .26-.078.482-.235.665A.724.724 0 018.84 15H6.161a.724.724 0 01-.57-.273.986.986 0 01-.234-.665v-3.124c0-.26.078-.482.235-.665A.724.724 0 016.16 10h.803V8.125H2.68V10h.803c.223 0 .413.091.57.273a.986.986 0 01.234.665v3.124c0 .26-.078.482-.235.665a.724.724 0 01-.569.273H.804a.724.724 0 01-.57-.273.986.986 0 01-.234-.665v-3.124c0-.26.078-.482.234-.665A.724.724 0 01.804 10h.803V8.125c0-.339.106-.632.318-.879.212-.247.463-.371.754-.371h4.285V5h-.803a.724.724 0 01-.57-.273.986.986 0 01-.234-.665V.938c0-.26.078-.481.235-.664A.724.724 0 016.16 0h2.678c.223 0 .413.091.57.273a.986.986 0 01.234.664v3.125c0 .26-.078.482-.235.665A.724.724 0 018.84 5h-.803v1.875h4.285c.29 0 .542.124.754.371.212.247.318.54.318.879V10h.803c.224 0 .413.091.57.273z" fill-rule="evenodd"/></mask></defs><g fill="none"><path d="M14.766 10.273a.986.986 0 01.234.665v3.124c0 .26-.078.482-.234.665a.724.724 0 01-.57.273h-2.678a.724.724 0 01-.57-.273.986.986 0 01-.234-.665v-3.124c0-.26.078-.482.235-.665a.724.724 0 01.569-.273h.803V8.125H8.036V10h.803c.223 0 .413.091.57.273a.986.986 0 01.234.665v3.124c0 .26-.078.482-.235.665A.724.724 0 018.84 15H6.161a.724.724 0 01-.57-.273.986.986 0 01-.234-.665v-3.124c0-.26.078-.482.235-.665A.724.724 0 016.16 10h.803V8.125H2.68V10h.803c.223 0 .413.091.57.273a.986.986 0 01.234.665v3.124c0 .26-.078.482-.235.665a.724.724 0 01-.569.273H.804a.724.724 0 01-.57-.273.986.986 0 01-.234-.665v-3.124c0-.26.078-.482.234-.665A.724.724 0 01.804 10h.803V8.125c0-.339.106-.632.318-.879.212-.247.463-.371.754-.371h4.285V5h-.803a.724.724 0 01-.57-.273.986.986 0 01-.234-.665V.938c0-.26.078-.481.235-.664A.724.724 0 016.16 0h2.678c.223 0 .413.091.57.273a.986.986 0 01.234.664v3.125c0 .26-.078.482-.235.665A.724.724 0 018.84 5h-.803v1.875h4.285c.29 0 .542.124.754.371.212.247.318.54.318.879V10h.803c.224 0 .413.091.57.273z"/><path d="M14.766 10.273a.986.986 0 01.234.665v3.124c0 .26-.078.482-.234.665a.724.724 0 01-.57.273h-2.678a.724.724 0 01-.57-.273.986.986 0 01-.234-.665v-3.124c0-.26.078-.482.235-.665a.724.724 0 01.569-.273h.803V8.125H8.036V10h.803c.223 0 .413.091.57.273a.986.986 0 01.234.665v3.124c0 .26-.078.482-.235.665A.724.724 0 018.84 15H6.161a.724.724 0 01-.57-.273.986.986 0 01-.234-.665v-3.124c0-.26.078-.482.235-.665A.724.724 0 016.16 10h.803V8.125H2.68V10h.803c.223 0 .413.091.57.273a.986.986 0 01.234.665v3.124c0 .26-.078.482-.235.665a.724.724 0 01-.569.273H.804a.724.724 0 01-.57-.273.986.986 0 01-.234-.665v-3.124c0-.26.078-.482.234-.665A.724.724 0 01.804 10h.803V8.125c0-.339.106-.632.318-.879.212-.247.463-.371.754-.371h4.285V5h-.803a.724.724 0 01-.57-.273.986.986 0 01-.234-.665V.938c0-.26.078-.481.235-.664A.724.724 0 016.16 0h2.678c.223 0 .413.091.57.273a.986.986 0 01.234.664v3.125c0 .26-.078.482-.235.665A.724.724 0 018.84 5h-.803v1.875h4.285c.29 0 .542.124.754.371.212.247.318.54.318.879V10h.803c.224 0 .413.091.57.273z" stroke-width="2" stroke="#8087a7" mask="url(#a)"/></g></svg>