<svg width="15" height="15" xmlns="http://www.w3.org/2000/svg"><defs><mask fill="#fff" id="a"><path d="M3.123 13.615a.997.997 0 00.339-.758.997.997 0 00-.339-.757 1.156 1.156 0 00-.815-.314c-.319 0-.59.104-.816.314a.997.997 0 00-.338.757 1 1 0 00.338.758c.225.209.497.314.816.314.318 0 .59-.105.815-.314zm3.462 0a.997.997 0 00.338-.758.997.997 0 00-.338-.757 1.156 1.156 0 00-.816-.314c-.318 0-.59.104-.816.314a.997.997 0 00-.338.757 1 1 0 00.338.758c.226.209.498.314.816.314.319 0 .59-.105.816-.314zM3.123 10.4a.997.997 0 00.339-.757.997.997 0 00-.339-.758 1.156 1.156 0 00-.815-.314c-.319 0-.59.105-.816.314a.997.997 0 00-.338.758c0 .296.113.548.338.757.225.21.497.314.816.314.318 0 .59-.104.815-.314zm6.924 3.215a.997.997 0 00.338-.758.997.997 0 00-.338-.757 1.156 1.156 0 00-.816-.314c-.319 0-.59.104-.816.314a.997.997 0 00-.338.757 1 1 0 00.338.758c.225.209.497.314.816.314.318 0 .59-.105.816-.314zM6.585 10.4a.997.997 0 00.338-.757.997.997 0 00-.338-.758 1.156 1.156 0 00-.816-.314c-.318 0-.59.105-.816.314a.997.997 0 00-.338.758c0 .296.113.548.338.757.226.21.498.314.816.314.319 0 .59-.104.816-.314zM3.123 7.186a.997.997 0 00.339-.757.997.997 0 00-.339-.758 1.156 1.156 0 00-.815-.314c-.319 0-.59.105-.816.314a.997.997 0 00-.338.758c0 .295.113.548.338.757.225.21.497.314.816.314.318 0 .59-.105.815-.314zm6.924 3.214a.997.997 0 00.338-.757.997.997 0 00-.338-.758 1.156 1.156 0 00-.816-.314c-.319 0-.59.105-.816.314a.997.997 0 00-.338.758c0 .296.113.548.338.757.225.21.497.314.816.314.318 0 .59-.104.816-.314zM6.585 7.186a.997.997 0 00.338-.757.997.997 0 00-.338-.758 1.156 1.156 0 00-.816-.314c-.318 0-.59.105-.816.314a.997.997 0 00-.338.758c0 .295.113.548.338.757.226.21.498.314.816.314.319 0 .59-.105.816-.314zm6.919 6.424a.995.995 0 00.342-.753V9.643a.995.995 0 00-.342-.753 1.152 1.152 0 00-.812-.319c-.312 0-.583.106-.811.319a.995.995 0 00-.343.753v3.214c0 .29.115.541.343.753.228.213.499.319.811.319.313 0 .583-.106.812-.319zm-3.457-6.424a.997.997 0 00.338-.757.997.997 0 00-.338-.758 1.156 1.156 0 00-.816-.314c-.319 0-.59.105-.816.314a.997.997 0 00-.338.758c0 .295.113.548.338.757.225.21.497.314.816.314.318 0 .59-.105.816-.314zm3.628-3.06a.497.497 0 00.171-.376V1.607a.497.497 0 00-.171-.377c-.114-.106-.25-.159-.406-.23H1.731c-.156.071-.292.124-.406.23a.497.497 0 00-.171.377V3.75a.5.5 0 00.171.377c.114.106.25.159.406.159h11.538a.576.576 0 00.406-.16zm-.167 3.06a.997.997 0 00.338-.757.997.997 0 00-.338-.758 1.156 1.156 0 00-.816-.314c-.318 0-.59.105-.815.314a.997.997 0 00-.339.758c0 .295.113.548.339.757.225.21.497.314.815.314.319 0 .59-.105.816-.314zm1.15-6.868a.995.995 0 01.342.753V13.93c0 .29-.114.54-.343.753a1.152 1.152 0 01-.81.318H1.153a1.15 1.15 0 01-.811-.318.995.995 0 01-.342-.754V1.07C0 .78.114.53.343.317A1.15 1.15 0 011.153 0h12.693c.313 0 .583.106.811.318z" fill-rule="evenodd"/></mask></defs><g fill="none"><path d="M3.123 13.615a.997.997 0 00.339-.758.997.997 0 00-.339-.757 1.156 1.156 0 00-.815-.314c-.319 0-.59.104-.816.314a.997.997 0 00-.338.757 1 1 0 00.338.758c.225.209.497.314.816.314.318 0 .59-.105.815-.314zm3.462 0a.997.997 0 00.338-.758.997.997 0 00-.338-.757 1.156 1.156 0 00-.816-.314c-.318 0-.59.104-.816.314a.997.997 0 00-.338.757 1 1 0 00.338.758c.226.209.498.314.816.314.319 0 .59-.105.816-.314zM3.123 10.4a.997.997 0 00.339-.757.997.997 0 00-.339-.758 1.156 1.156 0 00-.815-.314c-.319 0-.59.105-.816.314a.997.997 0 00-.338.758c0 .296.113.548.338.757.225.21.497.314.816.314.318 0 .59-.104.815-.314zm6.924 3.215a.997.997 0 00.338-.758.997.997 0 00-.338-.757 1.156 1.156 0 00-.816-.314c-.319 0-.59.104-.816.314a.997.997 0 00-.338.757 1 1 0 00.338.758c.225.209.497.314.816.314.318 0 .59-.105.816-.314zM6.585 10.4a.997.997 0 00.338-.757.997.997 0 00-.338-.758 1.156 1.156 0 00-.816-.314c-.318 0-.59.105-.816.314a.997.997 0 00-.338.758c0 .296.113.548.338.757.226.21.498.314.816.314.319 0 .59-.104.816-.314zM3.123 7.186a.997.997 0 00.339-.757.997.997 0 00-.339-.758 1.156 1.156 0 00-.815-.314c-.319 0-.59.105-.816.314a.997.997 0 00-.338.758c0 .295.113.548.338.757.225.21.497.314.816.314.318 0 .59-.105.815-.314zm6.924 3.214a.997.997 0 00.338-.757.997.997 0 00-.338-.758 1.156 1.156 0 00-.816-.314c-.319 0-.59.105-.816.314a.997.997 0 00-.338.758c0 .296.113.548.338.757.225.21.497.314.816.314.318 0 .59-.104.816-.314zM6.585 7.186a.997.997 0 00.338-.757.997.997 0 00-.338-.758 1.156 1.156 0 00-.816-.314c-.318 0-.59.105-.816.314a.997.997 0 00-.338.758c0 .295.113.548.338.757.226.21.498.314.816.314.319 0 .59-.105.816-.314zm6.919 6.424a.995.995 0 00.342-.753V9.643a.995.995 0 00-.342-.753 1.152 1.152 0 00-.812-.319c-.312 0-.583.106-.811.319a.995.995 0 00-.343.753v3.214c0 .29.115.541.343.753.228.213.499.319.811.319.313 0 .583-.106.812-.319zm-3.457-6.424a.997.997 0 00.338-.757.997.997 0 00-.338-.758 1.156 1.156 0 00-.816-.314c-.319 0-.59.105-.816.314a.997.997 0 00-.338.758c0 .295.113.548.338.757.225.21.497.314.816.314.318 0 .59-.105.816-.314zm3.628-3.06a.497.497 0 00.171-.376V1.607a.497.497 0 00-.171-.377c-.114-.106-.25-.159-.406-.23H1.731c-.156.071-.292.124-.406.23a.497.497 0 00-.171.377V3.75a.5.5 0 00.171.377c.114.106.25.159.406.159h11.538a.576.576 0 00.406-.16zm-.167 3.06a.997.997 0 00.338-.757.997.997 0 00-.338-.758 1.156 1.156 0 00-.816-.314c-.318 0-.59.105-.815.314a.997.997 0 00-.339.758c0 .295.113.548.339.757.225.21.497.314.815.314.319 0 .59-.105.816-.314zm1.15-6.868a.995.995 0 01.342.753V13.93c0 .29-.114.54-.343.753a1.152 1.152 0 01-.81.318H1.153a1.15 1.15 0 01-.811-.318.995.995 0 01-.342-.754V1.07C0 .78.114.53.343.317A1.15 1.15 0 011.153 0h12.693c.313 0 .583.106.811.318z"/><path d="M3.123 13.615a.997.997 0 00.339-.758.997.997 0 00-.339-.757 1.156 1.156 0 00-.815-.314c-.319 0-.59.104-.816.314a.997.997 0 00-.338.757 1 1 0 00.338.758c.225.209.497.314.816.314.318 0 .59-.105.815-.314zm3.462 0a.997.997 0 00.338-.758.997.997 0 00-.338-.757 1.156 1.156 0 00-.816-.314c-.318 0-.59.104-.816.314a.997.997 0 00-.338.757 1 1 0 00.338.758c.226.209.498.314.816.314.319 0 .59-.105.816-.314zM3.123 10.4a.997.997 0 00.339-.757.997.997 0 00-.339-.758 1.156 1.156 0 00-.815-.314c-.319 0-.59.105-.816.314a.997.997 0 00-.338.758c0 .296.113.548.338.757.225.21.497.314.816.314.318 0 .59-.104.815-.314zm6.924 3.215a.997.997 0 00.338-.758.997.997 0 00-.338-.757 1.156 1.156 0 00-.816-.314c-.319 0-.59.104-.816.314a.997.997 0 00-.338.757 1 1 0 00.338.758c.225.209.497.314.816.314.318 0 .59-.105.816-.314zM6.585 10.4a.997.997 0 00.338-.757.997.997 0 00-.338-.758 1.156 1.156 0 00-.816-.314c-.318 0-.59.105-.816.314a.997.997 0 00-.338.758c0 .296.113.548.338.757.226.21.498.314.816.314.319 0 .59-.104.816-.314zM3.123 7.186a.997.997 0 00.339-.757.997.997 0 00-.339-.758 1.156 1.156 0 00-.815-.314c-.319 0-.59.105-.816.314a.997.997 0 00-.338.758c0 .295.113.548.338.757.225.21.497.314.816.314.318 0 .59-.105.815-.314zm6.924 3.214a.997.997 0 00.338-.757.997.997 0 00-.338-.758 1.156 1.156 0 00-.816-.314c-.319 0-.59.105-.816.314a.997.997 0 00-.338.758c0 .296.113.548.338.757.225.21.497.314.816.314.318 0 .59-.104.816-.314zM6.585 7.186a.997.997 0 00.338-.757.997.997 0 00-.338-.758 1.156 1.156 0 00-.816-.314c-.318 0-.59.105-.816.314a.997.997 0 00-.338.758c0 .295.113.548.338.757.226.21.498.314.816.314.319 0 .59-.105.816-.314zm6.919 6.424a.995.995 0 00.342-.753V9.643a.995.995 0 00-.342-.753 1.152 1.152 0 00-.812-.319c-.312 0-.583.106-.811.319a.995.995 0 00-.343.753v3.214c0 .29.115.541.343.753.228.213.499.319.811.319.313 0 .583-.106.812-.319zm-3.457-6.424a.997.997 0 00.338-.757.997.997 0 00-.338-.758 1.156 1.156 0 00-.816-.314c-.319 0-.59.105-.816.314a.997.997 0 00-.338.758c0 .295.113.548.338.757.225.21.497.314.816.314.318 0 .59-.105.816-.314zm3.628-3.059a.497.497 0 00.171-.377V1.607a.497.497 0 00-.171-.377c-.114-.106-.25-.159-.406-.23H1.731c-.156.071-.292.124-.406.23a.497.497 0 00-.171.377V3.75a.5.5 0 00.171.377c.114.106.25.159.406.159h11.538a.576.576 0 00.406-.16zm-.167 3.059a.997.997 0 00.338-.757.997.997 0 00-.338-.758 1.156 1.156 0 00-.816-.314c-.318 0-.59.105-.815.314a.997.997 0 00-.339.758c0 .295.113.548.339.757.225.21.497.314.815.314.319 0 .59-.105.816-.314z" stroke-width="2" stroke="#8087a7" mask="url(#a)"/><path d="M14.657.318a.995.995 0 01.343.753V13.93c0 .29-.114.54-.343.753a1.152 1.152 0 01-.81.318H1.153a1.15 1.15 0 01-.811-.318.995.995 0 01-.342-.754V1.07C0 .78.114.53.343.317A1.15 1.15 0 011.153 0h12.693c.313 0 .583.106.811.318z" stroke-width="2" stroke="#8087a7" mask="url(#a)"/></g></svg>