<svg width="15" height="15" xmlns="http://www.w3.org/2000/svg"><defs><mask fill="#fff" id="a"><path d="M2.813 7.5h1.874v5H2.813v-5zm2.812-5H7.5v10H5.625v-10zM.937 13.75H15V15H0V0h.938v13.75zM8.438 5h1.876v7.5H8.437V5zM11 1.25h2V12.5h-2V1.25z" fill-rule="evenodd"/></mask></defs><g fill="none"><path d="M2.813 7.5h1.874v5H2.813v-5zm2.812-5H7.5v10H5.625v-10zM.937 13.75H15V15H0V0h.938v13.75zM8.438 5h1.876v7.5H8.437V5zM11 1.25h2V12.5h-2V1.25z"/><path d="M2.813 7.5h1.874v5H2.813v-5zm2.812-5H7.5v10H5.625v-10z" stroke-width="2" stroke="#8087a7" mask="url(#a)"/><path d="M.938 13.75H15V15H0V0h.938v13.75z" stroke-width="2" stroke="#8087a7" mask="url(#a)"/><path d="M8.438 5h1.874v7.5H8.438V5zM11 1.25h2V12.5h-2V1.25z" stroke-width="2" stroke="#8087a7" mask="url(#a)"/></g></svg>