<svg width="18" height="18" xmlns="http://www.w3.org/2000/svg"><defs><mask fill="#fff" id="a"><path d="M17.576 13.455c.283.282.424.626.424 1.03s-.141.747-.424 1.03l-2.06 2.06a1.403 1.403 0 01-1.031.425 1.4 1.4 0 01-1.03-.424L9 13.12l-4.455 4.455a1.403 1.403 0 01-1.03.424c-.404 0-.747-.141-1.03-.424l-2.06-2.06A1.403 1.403 0 010 14.484a1.4 1.4 0 01.424-1.03L4.88 9 .424 4.545A1.403 1.403 0 010 3.515c0-.404.141-.747.424-1.03l2.06-2.06A1.403 1.403 0 013.516 0a1.4 1.4 0 011.03.424L9 4.88 13.455.424A1.403 1.403 0 0114.485 0c.404 0 .747.141 1.03.424l2.06 2.06c.284.284.425.627.425 1.031a1.4 1.4 0 01-.424 1.03L13.12 9l4.455 4.455z" fill-rule="evenodd"/></mask></defs><g fill="none"><path d="M17.576 13.455c.283.282.424.626.424 1.03s-.141.747-.424 1.03l-2.06 2.06a1.403 1.403 0 01-1.031.425 1.4 1.4 0 01-1.03-.424L9 13.12l-4.455 4.455a1.403 1.403 0 01-1.03.424c-.404 0-.747-.141-1.03-.424l-2.06-2.06A1.403 1.403 0 010 14.484a1.4 1.4 0 01.424-1.03L4.88 9 .424 4.545A1.403 1.403 0 010 3.515c0-.404.141-.747.424-1.03l2.06-2.06A1.403 1.403 0 013.516 0a1.4 1.4 0 011.03.424L9 4.88 13.455.424A1.403 1.403 0 0114.485 0c.404 0 .747.141 1.03.424l2.06 2.06c.284.284.425.627.425 1.031a1.4 1.4 0 01-.424 1.03L13.12 9l4.455 4.455z"/><path d="M17.576 13.455c.283.282.424.626.424 1.03s-.141.747-.424 1.03l-2.06 2.06a1.403 1.403 0 01-1.031.425 1.4 1.4 0 01-1.03-.424L9 13.12l-4.455 4.455a1.403 1.403 0 01-1.03.424c-.404 0-.747-.141-1.03-.424l-2.06-2.06A1.403 1.403 0 010 14.484a1.4 1.4 0 01.424-1.03L4.88 9 .424 4.545A1.403 1.403 0 010 3.515c0-.404.141-.747.424-1.03l2.06-2.06A1.403 1.403 0 013.516 0a1.4 1.4 0 011.03.424L9 4.88 13.455.424A1.403 1.403 0 0114.485 0c.404 0 .747.141 1.03.424l2.06 2.06c.284.284.425.627.425 1.031a1.4 1.4 0 01-.424 1.03L13.12 9l4.455 4.455z" stroke-width="4" stroke="#51af92" stroke-opacity=".996" mask="url(#a)"/></g></svg>