<?xml version="1.0" encoding="utf-8"?>
<svg version="1.1" xmlns:xlink="http://www.w3.org/1999/xlink" width="19px" height="18px" xmlns="http://www.w3.org/2000/svg">
  <defs>
    <mask fill="white" id="clip80">
      <path d="M 18.7985491071429 5.97375  C 18.932849702381 6.11625  19 6.285  19 6.48  C 19 6.675  18.932849702381 6.84375  18.7985491071429 6.98625  L 13.3699776785714 12.74625  C 13.2356770833333 12.88875  13.0766369047619 12.96  12.8928571428571 12.96  C 12.7090773809524 12.96  12.550037202381 12.88875  12.4157366071429 12.74625  C 12.2814360119048 12.60375  12.2142857142857 12.435  12.2142857142857 12.24  L 12.2142857142857 9.36  L 9.83928571428572 9.36  C 9.14657738095238 9.36  8.52632068452381 9.3825  7.978515625 9.4275  C 7.43071056547619 9.4725  6.88643973214286 9.553125  6.345703125 9.669375  C 5.80496651785714 9.785625  5.33491443452381 9.945  4.935546875 10.1475  C 4.53617931547619 10.35  4.16331845238095 10.610625  3.81696428571429 10.929375  C 3.47061011904762 11.248125  3.18787202380952 11.626875  2.96875 12.065625  C 2.74962797619048 12.504375  2.57821800595238 13.02375  2.45452008928571 13.62375  C 2.33082217261905 14.22375  2.26897321428571 14.9025  2.26897321428571 15.66  C 2.26897321428571 16.0725  2.2866443452381 16.53375  2.32198660714286 17.04375  C 2.32198660714286 17.08875  2.33082217261905 17.176875  2.34849330357143 17.308125  C 2.36616443452381 17.439375  2.375 17.53875  2.375 17.60625  C 2.375 17.71875  2.34495907738095 17.8125  2.28487723214286 17.8875  C 2.22479538690476 17.9625  2.14174107142857 18  2.03571428571429 18  C 1.92261904761905 18  1.82366071428571 17.93625  1.73883928571429 17.80875  C 1.68936011904762 17.74125  1.64341517857143 17.65875  1.60100446428571 17.56125  C 1.55859375 17.46375  1.51088169642857 17.35125  1.45786830357143 17.22375  C 1.40485491071429 17.09625  1.36774553571429 17.00625  1.34654017857143 16.95375  C 0.448846726190476 14.81625  0 13.125  0 11.88  C 0 10.3875  0.187313988095238 9.13875  0.561941964285714 8.13375  C 1.70703125 5.11125  4.79947916666667 3.6  9.83928571428572 3.6  L 12.2142857142857 3.6  L 12.2142857142857 0.720000000000001  C 12.2142857142857 0.524999999999998  12.2814360119048 0.356249999999998  12.4157366071429 0.213749999999999  C 12.550037202381 0.0712499999999991  12.7090773809524 0  12.8928571428571 0  C 13.0766369047619 0  13.2356770833333 0.0712499999999991  13.3699776785714 0.213749999999999  L 18.7985491071429 5.97375  Z " fill-rule="evenodd" />
    </mask>
  </defs>
  <g transform="matrix(1 0 0 1 -1120 -276 )">
    <path d="M 18.7985491071429 5.97375  C 18.932849702381 6.11625  19 6.285  19 6.48  C 19 6.675  18.932849702381 6.84375  18.7985491071429 6.98625  L 13.3699776785714 12.74625  C 13.2356770833333 12.88875  13.0766369047619 12.96  12.8928571428571 12.96  C 12.7090773809524 12.96  12.550037202381 12.88875  12.4157366071429 12.74625  C 12.2814360119048 12.60375  12.2142857142857 12.435  12.2142857142857 12.24  L 12.2142857142857 9.36  L 9.83928571428572 9.36  C 9.14657738095238 9.36  8.52632068452381 9.3825  7.978515625 9.4275  C 7.43071056547619 9.4725  6.88643973214286 9.553125  6.345703125 9.669375  C 5.80496651785714 9.785625  5.33491443452381 9.945  4.935546875 10.1475  C 4.53617931547619 10.35  4.16331845238095 10.610625  3.81696428571429 10.929375  C 3.47061011904762 11.248125  3.18787202380952 11.626875  2.96875 12.065625  C 2.74962797619048 12.504375  2.57821800595238 13.02375  2.45452008928571 13.62375  C 2.33082217261905 14.22375  2.26897321428571 14.9025  2.26897321428571 15.66  C 2.26897321428571 16.0725  2.2866443452381 16.53375  2.32198660714286 17.04375  C 2.32198660714286 17.08875  2.33082217261905 17.176875  2.34849330357143 17.308125  C 2.36616443452381 17.439375  2.375 17.53875  2.375 17.60625  C 2.375 17.71875  2.34495907738095 17.8125  2.28487723214286 17.8875  C 2.22479538690476 17.9625  2.14174107142857 18  2.03571428571429 18  C 1.92261904761905 18  1.82366071428571 17.93625  1.73883928571429 17.80875  C 1.68936011904762 17.74125  1.64341517857143 17.65875  1.60100446428571 17.56125  C 1.55859375 17.46375  1.51088169642857 17.35125  1.45786830357143 17.22375  C 1.40485491071429 17.09625  1.36774553571429 17.00625  1.34654017857143 16.95375  C 0.448846726190476 14.81625  0 13.125  0 11.88  C 0 10.3875  0.187313988095238 9.13875  0.561941964285714 8.13375  C 1.70703125 5.11125  4.79947916666667 3.6  9.83928571428572 3.6  L 12.2142857142857 3.6  L 12.2142857142857 0.720000000000001  C 12.2142857142857 0.524999999999998  12.2814360119048 0.356249999999998  12.4157366071429 0.213749999999999  C 12.550037202381 0.0712499999999991  12.7090773809524 0  12.8928571428571 0  C 13.0766369047619 0  13.2356770833333 0.0712499999999991  13.3699776785714 0.213749999999999  L 18.7985491071429 5.97375  Z " fill-rule="nonzero" fill="#000000" stroke="none" fill-opacity="0" transform="matrix(1 0 0 1 1120 276 )" />
    <path d="M 18.7985491071429 5.97375  C 18.932849702381 6.11625  19 6.285  19 6.48  C 19 6.675  18.932849702381 6.84375  18.7985491071429 6.98625  L 13.3699776785714 12.74625  C 13.2356770833333 12.88875  13.0766369047619 12.96  12.8928571428571 12.96  C 12.7090773809524 12.96  12.550037202381 12.88875  12.4157366071429 12.74625  C 12.2814360119048 12.60375  12.2142857142857 12.435  12.2142857142857 12.24  L 12.2142857142857 9.36  L 9.83928571428572 9.36  C 9.14657738095238 9.36  8.52632068452381 9.3825  7.978515625 9.4275  C 7.43071056547619 9.4725  6.88643973214286 9.553125  6.345703125 9.669375  C 5.80496651785714 9.785625  5.33491443452381 9.945  4.935546875 10.1475  C 4.53617931547619 10.35  4.16331845238095 10.610625  3.81696428571429 10.929375  C 3.47061011904762 11.248125  3.18787202380952 11.626875  2.96875 12.065625  C 2.74962797619048 12.504375  2.57821800595238 13.02375  2.45452008928571 13.62375  C 2.33082217261905 14.22375  2.26897321428571 14.9025  2.26897321428571 15.66  C 2.26897321428571 16.0725  2.2866443452381 16.53375  2.32198660714286 17.04375  C 2.32198660714286 17.08875  2.33082217261905 17.176875  2.34849330357143 17.308125  C 2.36616443452381 17.439375  2.375 17.53875  2.375 17.60625  C 2.375 17.71875  2.34495907738095 17.8125  2.28487723214286 17.8875  C 2.22479538690476 17.9625  2.14174107142857 18  2.03571428571429 18  C 1.92261904761905 18  1.82366071428571 17.93625  1.73883928571429 17.80875  C 1.68936011904762 17.74125  1.64341517857143 17.65875  1.60100446428571 17.56125  C 1.55859375 17.46375  1.51088169642857 17.35125  1.45786830357143 17.22375  C 1.40485491071429 17.09625  1.36774553571429 17.00625  1.34654017857143 16.95375  C 0.448846726190476 14.81625  0 13.125  0 11.88  C 0 10.3875  0.187313988095238 9.13875  0.561941964285714 8.13375  C 1.70703125 5.11125  4.79947916666667 3.6  9.83928571428572 3.6  L 12.2142857142857 3.6  L 12.2142857142857 0.720000000000001  C 12.2142857142857 0.524999999999998  12.2814360119048 0.356249999999998  12.4157366071429 0.213749999999999  C 12.550037202381 0.0712499999999991  12.7090773809524 0  12.8928571428571 0  C 13.0766369047619 0  13.2356770833333 0.0712499999999991  13.3699776785714 0.213749999999999  L 18.7985491071429 5.97375  Z " stroke-width="4" stroke="#51af92" fill="none" stroke-opacity="0.996078431372549" transform="matrix(1 0 0 1 1120 276 )" mask="url(#clip80)" />
  </g>
</svg>