<?xml version="1.0" encoding="utf-8"?>
<svg version="1.1" xmlns:xlink="http://www.w3.org/1999/xlink" width="15px" height="15px" xmlns="http://www.w3.org/2000/svg">
  <defs>
    <mask fill="white" id="clip48">
      <path d="M 3.12349759615385 13.6146763392857  C 3.34885817307692 13.4054129464286  3.46153846153846 13.1529017857143  3.46153846153846 12.8571428571429  C 3.46153846153846 12.5613839285714  3.34885817307692 12.3088727678571  3.12349759615385 12.099609375  C 2.89813701923077 11.8903459821429  2.62620192307692 11.7857142857143  2.30769230769231 11.7857142857143  C 1.98918269230769 11.7857142857143  1.71724759615385 11.8903459821429  1.49188701923077 12.099609375  C 1.26652644230769 12.3088727678571  1.15384615384615 12.5613839285714  1.15384615384615 12.8571428571429  C 1.15384615384615 13.1529017857143  1.26652644230769 13.4054129464286  1.49188701923077 13.6146763392857  C 1.71724759615385 13.8239397321429  1.98918269230769 13.9285714285714  2.30769230769231 13.9285714285714  C 2.62620192307692 13.9285714285714  2.89813701923077 13.8239397321429  3.12349759615385 13.6146763392857  Z M 6.58503605769231 13.6146763392857  C 6.81039663461538 13.4054129464286  6.92307692307692 13.1529017857143  6.92307692307692 12.8571428571429  C 6.92307692307692 12.5613839285714  6.81039663461538 12.3088727678571  6.58503605769231 12.099609375  C 6.35967548076923 11.8903459821429  6.08774038461539 11.7857142857143  5.76923076923077 11.7857142857143  C 5.45072115384615 11.7857142857143  5.17878605769231 11.8903459821429  4.95342548076923 12.099609375  C 4.72806490384615 12.3088727678571  4.61538461538462 12.5613839285714  4.61538461538462 12.8571428571429  C 4.61538461538462 13.1529017857143  4.72806490384615 13.4054129464286  4.95342548076923 13.6146763392857  C 5.17878605769231 13.8239397321429  5.45072115384615 13.9285714285714  5.76923076923077 13.9285714285714  C 6.08774038461539 13.9285714285714  6.35967548076923 13.8239397321429  6.58503605769231 13.6146763392857  Z M 3.12349759615385 10.400390625  C 3.34885817307692 10.1911272321429  3.46153846153846 9.93861607142857  3.46153846153846 9.64285714285714  C 3.46153846153846 9.34709821428571  3.34885817307692 9.09458705357143  3.12349759615385 8.88532366071428  C 2.89813701923077 8.67606026785714  2.62620192307692 8.57142857142857  2.30769230769231 8.57142857142857  C 1.98918269230769 8.57142857142857  1.71724759615385 8.67606026785714  1.49188701923077 8.88532366071428  C 1.26652644230769 9.09458705357143  1.15384615384615 9.34709821428571  1.15384615384615 9.64285714285714  C 1.15384615384615 9.93861607142857  1.26652644230769 10.1911272321429  1.49188701923077 10.400390625  C 1.71724759615385 10.6096540178571  1.98918269230769 10.7142857142857  2.30769230769231 10.7142857142857  C 2.62620192307692 10.7142857142857  2.89813701923077 10.6096540178571  3.12349759615385 10.400390625  Z M 10.0465745192308 13.6146763392857  C 10.2719350961538 13.4054129464286  10.3846153846154 13.1529017857143  10.3846153846154 12.8571428571429  C 10.3846153846154 12.5613839285714  10.2719350961538 12.3088727678571  10.0465745192308 12.099609375  C 9.82121394230769 11.8903459821429  9.54927884615385 11.7857142857143  9.23076923076923 11.7857142857143  C 8.91225961538462 11.7857142857143  8.64032451923077 11.8903459821429  8.41496394230769 12.099609375  C 8.18960336538462 12.3088727678571  8.07692307692308 12.5613839285714  8.07692307692308 12.8571428571429  C 8.07692307692308 13.1529017857143  8.18960336538462 13.4054129464286  8.41496394230769 13.6146763392857  C 8.64032451923077 13.8239397321429  8.91225961538462 13.9285714285714  9.23076923076923 13.9285714285714  C 9.54927884615385 13.9285714285714  9.82121394230769 13.8239397321429  10.0465745192308 13.6146763392857  Z M 6.58503605769231 10.400390625  C 6.81039663461538 10.1911272321429  6.92307692307692 9.93861607142857  6.92307692307692 9.64285714285714  C 6.92307692307692 9.34709821428571  6.81039663461538 9.09458705357143  6.58503605769231 8.88532366071428  C 6.35967548076923 8.67606026785714  6.08774038461539 8.57142857142857  5.76923076923077 8.57142857142857  C 5.45072115384615 8.57142857142857  5.17878605769231 8.67606026785714  4.95342548076923 8.88532366071428  C 4.72806490384615 9.09458705357143  4.61538461538462 9.34709821428571  4.61538461538462 9.64285714285714  C 4.61538461538462 9.93861607142857  4.72806490384615 10.1911272321429  4.95342548076923 10.400390625  C 5.17878605769231 10.6096540178571  5.45072115384615 10.7142857142857  5.76923076923077 10.7142857142857  C 6.08774038461539 10.7142857142857  6.35967548076923 10.6096540178571  6.58503605769231 10.400390625  Z M 3.12349759615385 7.18610491071429  C 3.34885817307692 6.97684151785714  3.46153846153846 6.72433035714286  3.46153846153846 6.42857142857143  C 3.46153846153846 6.1328125  3.34885817307692 5.88030133928571  3.12349759615385 5.67103794642857  C 2.89813701923077 5.46177455357143  2.62620192307692 5.35714285714286  2.30769230769231 5.35714285714286  C 1.98918269230769 5.35714285714286  1.71724759615385 5.46177455357143  1.49188701923077 5.67103794642857  C 1.26652644230769 5.88030133928571  1.15384615384615 6.1328125  1.15384615384615 6.42857142857143  C 1.15384615384615 6.72433035714286  1.26652644230769 6.97684151785714  1.49188701923077 7.18610491071429  C 1.71724759615385 7.39536830357143  1.98918269230769 7.5  2.30769230769231 7.5  C 2.62620192307692 7.5  2.89813701923077 7.39536830357143  3.12349759615385 7.18610491071429  Z M 10.0465745192308 10.400390625  C 10.2719350961538 10.1911272321429  10.3846153846154 9.93861607142857  10.3846153846154 9.64285714285714  C 10.3846153846154 9.34709821428571  10.2719350961538 9.09458705357143  10.0465745192308 8.88532366071428  C 9.82121394230769 8.67606026785714  9.54927884615385 8.57142857142857  9.23076923076923 8.57142857142857  C 8.91225961538462 8.57142857142857  8.64032451923077 8.67606026785714  8.41496394230769 8.88532366071428  C 8.18960336538462 9.09458705357143  8.07692307692308 9.34709821428571  8.07692307692308 9.64285714285714  C 8.07692307692308 9.93861607142857  8.18960336538462 10.1911272321429  8.41496394230769 10.400390625  C 8.64032451923077 10.6096540178571  8.91225961538462 10.7142857142857  9.23076923076923 10.7142857142857  C 9.54927884615385 10.7142857142857  9.82121394230769 10.6096540178571  10.0465745192308 10.400390625  Z M 6.58503605769231 7.18610491071429  C 6.81039663461538 6.97684151785714  6.92307692307692 6.72433035714286  6.92307692307692 6.42857142857143  C 6.92307692307692 6.1328125  6.81039663461538 5.88030133928571  6.58503605769231 5.67103794642857  C 6.35967548076923 5.46177455357143  6.08774038461539 5.35714285714286  5.76923076923077 5.35714285714286  C 5.45072115384615 5.35714285714286  5.17878605769231 5.46177455357143  4.95342548076923 5.67103794642857  C 4.72806490384615 5.88030133928571  4.61538461538462 6.1328125  4.61538461538462 6.42857142857143  C 4.61538461538462 6.72433035714286  4.72806490384615 6.97684151785714  4.95342548076923 7.18610491071429  C 5.17878605769231 7.39536830357143  5.45072115384615 7.5  5.76923076923077 7.5  C 6.08774038461539 7.5  6.35967548076923 7.39536830357143  6.58503605769231 7.18610491071429  Z M 13.5036057692308 13.6104910714286  C 13.7319711538462 13.3984375  13.8461538461538 13.1473214285714  13.8461538461538 12.8571428571429  L 13.8461538461538 9.64285714285714  C 13.8461538461538 9.35267857142857  13.7319711538462 9.1015625  13.5036057692308 8.88950892857143  C 13.2752403846154 8.67745535714286  13.0048076923077 8.57142857142857  12.6923076923077 8.57142857142857  C 12.3798076923077 8.57142857142857  12.109375 8.67745535714286  11.8810096153846 8.88950892857143  C 11.6526442307692 9.1015625  11.5384615384615 9.35267857142857  11.5384615384615 9.64285714285714  L 11.5384615384615 12.8571428571429  C 11.5384615384615 13.1473214285714  11.6526442307692 13.3984375  11.8810096153846 13.6104910714286  C 12.109375 13.8225446428571  12.3798076923077 13.9285714285714  12.6923076923077 13.9285714285714  C 13.0048076923077 13.9285714285714  13.2752403846154 13.8225446428571  13.5036057692308 13.6104910714286  Z M 10.0465745192308 7.18610491071429  C 10.2719350961538 6.97684151785714  10.3846153846154 6.72433035714286  10.3846153846154 6.42857142857143  C 10.3846153846154 6.1328125  10.2719350961538 5.88030133928571  10.0465745192308 5.67103794642857  C 9.82121394230769 5.46177455357143  9.54927884615385 5.35714285714286  9.23076923076923 5.35714285714286  C 8.91225961538462 5.35714285714286  8.64032451923077 5.46177455357143  8.41496394230769 5.67103794642857  C 8.18960336538462 5.88030133928571  8.07692307692308 6.1328125  8.07692307692308 6.42857142857143  C 8.07692307692308 6.72433035714286  8.18960336538462 6.97684151785714  8.41496394230769 7.18610491071429  C 8.64032451923077 7.39536830357143  8.91225961538462 7.5  9.23076923076923 7.5  C 9.54927884615385 7.5  9.82121394230769 7.39536830357143  10.0465745192308 7.18610491071429  Z M 13.6748798076923 4.12667410714286  C 13.7890625 4.02064732142857  13.8461538461538 3.89508928571428  13.8461538461538 3.75  L 13.8461538461538 1.60714285714286  C 13.8461538461538 1.46205357142857  13.7890625 1.33649553571428  13.6748798076923 1.23046875  C 13.5606971153846 1.12444196428571  13.4254807692308 1.07142857142857  13.2692307692308 1  L 1.73076923076923 1  C 1.57451923076923 1.07142857142857  1.43930288461538 1.12444196428571  1.32512019230769 1.23046875  C 1.2109375 1.33649553571428  1.15384615384615 1.46205357142857  1.15384615384615 1.60714285714286  L 1.15384615384615 3.75  C 1.15384615384615 3.89508928571428  1.2109375 4.02064732142857  1.32512019230769 4.12667410714286  C 1.43930288461538 4.23270089285714  1.57451923076923 4.28571428571429  1.73076923076923 4.28571428571429  L 13.2692307692308 4.28571428571429  C 13.4254807692308 4.28571428571429  13.5606971153846 4.23270089285714  13.6748798076923 4.12667410714286  Z M 13.5081129807692 7.18610491071429  C 13.7334735576923 6.97684151785714  13.8461538461538 6.72433035714286  13.8461538461538 6.42857142857143  C 13.8461538461538 6.1328125  13.7334735576923 5.88030133928571  13.5081129807692 5.67103794642857  C 13.2827524038462 5.46177455357143  13.0108173076923 5.35714285714286  12.6923076923077 5.35714285714286  C 12.3737980769231 5.35714285714286  12.1018629807692 5.46177455357143  11.8765024038462 5.67103794642857  C 11.6511418269231 5.88030133928571  11.5384615384615 6.1328125  11.5384615384615 6.42857142857143  C 11.5384615384615 6.72433035714286  11.6511418269231 6.97684151785714  11.8765024038462 7.18610491071429  C 12.1018629807692 7.39536830357143  12.3737980769231 7.5  12.6923076923077 7.5  C 13.0108173076923 7.5  13.2827524038462 7.39536830357143  13.5081129807692 7.18610491071429  Z M 14.6574519230769 0.318080357142856  C 14.8858173076923 0.530133928571428  15 0.781249999999999  15 1.07142857142857  L 15 13.9285714285714  C 15 14.21875  14.8858173076923 14.4698660714286  14.6574519230769 14.6819196428571  C 14.4290865384615 14.8939732142857  14.1586538461538 15  13.8461538461538 15  L 1.15384615384615 15  C 0.841346153846154 15  0.570913461538462 14.8939732142857  0.342548076923077 14.6819196428571  C 0.114182692307692 14.4698660714286  0 14.21875  0 13.9285714285714  L 0 1.07142857142857  C 0 0.781249999999999  0.114182692307692 0.530133928571428  0.342548076923077 0.318080357142856  C 0.570913461538462 0.106026785714287  0.841346153846154 0  1.15384615384615 0  L 13.8461538461538 0  C 14.1586538461538 0  14.4290865384615 0.106026785714287  14.6574519230769 0.318080357142856  Z " fill-rule="evenodd" />
    </mask>
  </defs>
  <g transform="matrix(1 0 0 1 -26 -471 )">
    <path d="M 3.12349759615385 13.6146763392857  C 3.34885817307692 13.4054129464286  3.46153846153846 13.1529017857143  3.46153846153846 12.8571428571429  C 3.46153846153846 12.5613839285714  3.34885817307692 12.3088727678571  3.12349759615385 12.099609375  C 2.89813701923077 11.8903459821429  2.62620192307692 11.7857142857143  2.30769230769231 11.7857142857143  C 1.98918269230769 11.7857142857143  1.71724759615385 11.8903459821429  1.49188701923077 12.099609375  C 1.26652644230769 12.3088727678571  1.15384615384615 12.5613839285714  1.15384615384615 12.8571428571429  C 1.15384615384615 13.1529017857143  1.26652644230769 13.4054129464286  1.49188701923077 13.6146763392857  C 1.71724759615385 13.8239397321429  1.98918269230769 13.9285714285714  2.30769230769231 13.9285714285714  C 2.62620192307692 13.9285714285714  2.89813701923077 13.8239397321429  3.12349759615385 13.6146763392857  Z M 6.58503605769231 13.6146763392857  C 6.81039663461538 13.4054129464286  6.92307692307692 13.1529017857143  6.92307692307692 12.8571428571429  C 6.92307692307692 12.5613839285714  6.81039663461538 12.3088727678571  6.58503605769231 12.099609375  C 6.35967548076923 11.8903459821429  6.08774038461539 11.7857142857143  5.76923076923077 11.7857142857143  C 5.45072115384615 11.7857142857143  5.17878605769231 11.8903459821429  4.95342548076923 12.099609375  C 4.72806490384615 12.3088727678571  4.61538461538462 12.5613839285714  4.61538461538462 12.8571428571429  C 4.61538461538462 13.1529017857143  4.72806490384615 13.4054129464286  4.95342548076923 13.6146763392857  C 5.17878605769231 13.8239397321429  5.45072115384615 13.9285714285714  5.76923076923077 13.9285714285714  C 6.08774038461539 13.9285714285714  6.35967548076923 13.8239397321429  6.58503605769231 13.6146763392857  Z M 3.12349759615385 10.400390625  C 3.34885817307692 10.1911272321429  3.46153846153846 9.93861607142857  3.46153846153846 9.64285714285714  C 3.46153846153846 9.34709821428571  3.34885817307692 9.09458705357143  3.12349759615385 8.88532366071428  C 2.89813701923077 8.67606026785714  2.62620192307692 8.57142857142857  2.30769230769231 8.57142857142857  C 1.98918269230769 8.57142857142857  1.71724759615385 8.67606026785714  1.49188701923077 8.88532366071428  C 1.26652644230769 9.09458705357143  1.15384615384615 9.34709821428571  1.15384615384615 9.64285714285714  C 1.15384615384615 9.93861607142857  1.26652644230769 10.1911272321429  1.49188701923077 10.400390625  C 1.71724759615385 10.6096540178571  1.98918269230769 10.7142857142857  2.30769230769231 10.7142857142857  C 2.62620192307692 10.7142857142857  2.89813701923077 10.6096540178571  3.12349759615385 10.400390625  Z M 10.0465745192308 13.6146763392857  C 10.2719350961538 13.4054129464286  10.3846153846154 13.1529017857143  10.3846153846154 12.8571428571429  C 10.3846153846154 12.5613839285714  10.2719350961538 12.3088727678571  10.0465745192308 12.099609375  C 9.82121394230769 11.8903459821429  9.54927884615385 11.7857142857143  9.23076923076923 11.7857142857143  C 8.91225961538462 11.7857142857143  8.64032451923077 11.8903459821429  8.41496394230769 12.099609375  C 8.18960336538462 12.3088727678571  8.07692307692308 12.5613839285714  8.07692307692308 12.8571428571429  C 8.07692307692308 13.1529017857143  8.18960336538462 13.4054129464286  8.41496394230769 13.6146763392857  C 8.64032451923077 13.8239397321429  8.91225961538462 13.9285714285714  9.23076923076923 13.9285714285714  C 9.54927884615385 13.9285714285714  9.82121394230769 13.8239397321429  10.0465745192308 13.6146763392857  Z M 6.58503605769231 10.400390625  C 6.81039663461538 10.1911272321429  6.92307692307692 9.93861607142857  6.92307692307692 9.64285714285714  C 6.92307692307692 9.34709821428571  6.81039663461538 9.09458705357143  6.58503605769231 8.88532366071428  C 6.35967548076923 8.67606026785714  6.08774038461539 8.57142857142857  5.76923076923077 8.57142857142857  C 5.45072115384615 8.57142857142857  5.17878605769231 8.67606026785714  4.95342548076923 8.88532366071428  C 4.72806490384615 9.09458705357143  4.61538461538462 9.34709821428571  4.61538461538462 9.64285714285714  C 4.61538461538462 9.93861607142857  4.72806490384615 10.1911272321429  4.95342548076923 10.400390625  C 5.17878605769231 10.6096540178571  5.45072115384615 10.7142857142857  5.76923076923077 10.7142857142857  C 6.08774038461539 10.7142857142857  6.35967548076923 10.6096540178571  6.58503605769231 10.400390625  Z M 3.12349759615385 7.18610491071429  C 3.34885817307692 6.97684151785714  3.46153846153846 6.72433035714286  3.46153846153846 6.42857142857143  C 3.46153846153846 6.1328125  3.34885817307692 5.88030133928571  3.12349759615385 5.67103794642857  C 2.89813701923077 5.46177455357143  2.62620192307692 5.35714285714286  2.30769230769231 5.35714285714286  C 1.98918269230769 5.35714285714286  1.71724759615385 5.46177455357143  1.49188701923077 5.67103794642857  C 1.26652644230769 5.88030133928571  1.15384615384615 6.1328125  1.15384615384615 6.42857142857143  C 1.15384615384615 6.72433035714286  1.26652644230769 6.97684151785714  1.49188701923077 7.18610491071429  C 1.71724759615385 7.39536830357143  1.98918269230769 7.5  2.30769230769231 7.5  C 2.62620192307692 7.5  2.89813701923077 7.39536830357143  3.12349759615385 7.18610491071429  Z M 10.0465745192308 10.400390625  C 10.2719350961538 10.1911272321429  10.3846153846154 9.93861607142857  10.3846153846154 9.64285714285714  C 10.3846153846154 9.34709821428571  10.2719350961538 9.09458705357143  10.0465745192308 8.88532366071428  C 9.82121394230769 8.67606026785714  9.54927884615385 8.57142857142857  9.23076923076923 8.57142857142857  C 8.91225961538462 8.57142857142857  8.64032451923077 8.67606026785714  8.41496394230769 8.88532366071428  C 8.18960336538462 9.09458705357143  8.07692307692308 9.34709821428571  8.07692307692308 9.64285714285714  C 8.07692307692308 9.93861607142857  8.18960336538462 10.1911272321429  8.41496394230769 10.400390625  C 8.64032451923077 10.6096540178571  8.91225961538462 10.7142857142857  9.23076923076923 10.7142857142857  C 9.54927884615385 10.7142857142857  9.82121394230769 10.6096540178571  10.0465745192308 10.400390625  Z M 6.58503605769231 7.18610491071429  C 6.81039663461538 6.97684151785714  6.92307692307692 6.72433035714286  6.92307692307692 6.42857142857143  C 6.92307692307692 6.1328125  6.81039663461538 5.88030133928571  6.58503605769231 5.67103794642857  C 6.35967548076923 5.46177455357143  6.08774038461539 5.35714285714286  5.76923076923077 5.35714285714286  C 5.45072115384615 5.35714285714286  5.17878605769231 5.46177455357143  4.95342548076923 5.67103794642857  C 4.72806490384615 5.88030133928571  4.61538461538462 6.1328125  4.61538461538462 6.42857142857143  C 4.61538461538462 6.72433035714286  4.72806490384615 6.97684151785714  4.95342548076923 7.18610491071429  C 5.17878605769231 7.39536830357143  5.45072115384615 7.5  5.76923076923077 7.5  C 6.08774038461539 7.5  6.35967548076923 7.39536830357143  6.58503605769231 7.18610491071429  Z M 13.5036057692308 13.6104910714286  C 13.7319711538462 13.3984375  13.8461538461538 13.1473214285714  13.8461538461538 12.8571428571429  L 13.8461538461538 9.64285714285714  C 13.8461538461538 9.35267857142857  13.7319711538462 9.1015625  13.5036057692308 8.88950892857143  C 13.2752403846154 8.67745535714286  13.0048076923077 8.57142857142857  12.6923076923077 8.57142857142857  C 12.3798076923077 8.57142857142857  12.109375 8.67745535714286  11.8810096153846 8.88950892857143  C 11.6526442307692 9.1015625  11.5384615384615 9.35267857142857  11.5384615384615 9.64285714285714  L 11.5384615384615 12.8571428571429  C 11.5384615384615 13.1473214285714  11.6526442307692 13.3984375  11.8810096153846 13.6104910714286  C 12.109375 13.8225446428571  12.3798076923077 13.9285714285714  12.6923076923077 13.9285714285714  C 13.0048076923077 13.9285714285714  13.2752403846154 13.8225446428571  13.5036057692308 13.6104910714286  Z M 10.0465745192308 7.18610491071429  C 10.2719350961538 6.97684151785714  10.3846153846154 6.72433035714286  10.3846153846154 6.42857142857143  C 10.3846153846154 6.1328125  10.2719350961538 5.88030133928571  10.0465745192308 5.67103794642857  C 9.82121394230769 5.46177455357143  9.54927884615385 5.35714285714286  9.23076923076923 5.35714285714286  C 8.91225961538462 5.35714285714286  8.64032451923077 5.46177455357143  8.41496394230769 5.67103794642857  C 8.18960336538462 5.88030133928571  8.07692307692308 6.1328125  8.07692307692308 6.42857142857143  C 8.07692307692308 6.72433035714286  8.18960336538462 6.97684151785714  8.41496394230769 7.18610491071429  C 8.64032451923077 7.39536830357143  8.91225961538462 7.5  9.23076923076923 7.5  C 9.54927884615385 7.5  9.82121394230769 7.39536830357143  10.0465745192308 7.18610491071429  Z M 13.6748798076923 4.12667410714286  C 13.7890625 4.02064732142857  13.8461538461538 3.89508928571428  13.8461538461538 3.75  L 13.8461538461538 1.60714285714286  C 13.8461538461538 1.46205357142857  13.7890625 1.33649553571428  13.6748798076923 1.23046875  C 13.5606971153846 1.12444196428571  13.4254807692308 1.07142857142857  13.2692307692308 1  L 1.73076923076923 1  C 1.57451923076923 1.07142857142857  1.43930288461538 1.12444196428571  1.32512019230769 1.23046875  C 1.2109375 1.33649553571428  1.15384615384615 1.46205357142857  1.15384615384615 1.60714285714286  L 1.15384615384615 3.75  C 1.15384615384615 3.89508928571428  1.2109375 4.02064732142857  1.32512019230769 4.12667410714286  C 1.43930288461538 4.23270089285714  1.57451923076923 4.28571428571429  1.73076923076923 4.28571428571429  L 13.2692307692308 4.28571428571429  C 13.4254807692308 4.28571428571429  13.5606971153846 4.23270089285714  13.6748798076923 4.12667410714286  Z M 13.5081129807692 7.18610491071429  C 13.7334735576923 6.97684151785714  13.8461538461538 6.72433035714286  13.8461538461538 6.42857142857143  C 13.8461538461538 6.1328125  13.7334735576923 5.88030133928571  13.5081129807692 5.67103794642857  C 13.2827524038462 5.46177455357143  13.0108173076923 5.35714285714286  12.6923076923077 5.35714285714286  C 12.3737980769231 5.35714285714286  12.1018629807692 5.46177455357143  11.8765024038462 5.67103794642857  C 11.6511418269231 5.88030133928571  11.5384615384615 6.1328125  11.5384615384615 6.42857142857143  C 11.5384615384615 6.72433035714286  11.6511418269231 6.97684151785714  11.8765024038462 7.18610491071429  C 12.1018629807692 7.39536830357143  12.3737980769231 7.5  12.6923076923077 7.5  C 13.0108173076923 7.5  13.2827524038462 7.39536830357143  13.5081129807692 7.18610491071429  Z M 14.6574519230769 0.318080357142856  C 14.8858173076923 0.530133928571428  15 0.781249999999999  15 1.07142857142857  L 15 13.9285714285714  C 15 14.21875  14.8858173076923 14.4698660714286  14.6574519230769 14.6819196428571  C 14.4290865384615 14.8939732142857  14.1586538461538 15  13.8461538461538 15  L 1.15384615384615 15  C 0.841346153846154 15  0.570913461538462 14.8939732142857  0.342548076923077 14.6819196428571  C 0.114182692307692 14.4698660714286  0 14.21875  0 13.9285714285714  L 0 1.07142857142857  C 0 0.781249999999999  0.114182692307692 0.530133928571428  0.342548076923077 0.318080357142856  C 0.570913461538462 0.106026785714287  0.841346153846154 0  1.15384615384615 0  L 13.8461538461538 0  C 14.1586538461538 0  14.4290865384615 0.106026785714287  14.6574519230769 0.318080357142856  Z " fill-rule="nonzero" fill="#000000" stroke="none" fill-opacity="0" transform="matrix(1 0 0 1 26 471 )" />
    <path d="M 3.12349759615385 13.6146763392857  C 3.34885817307692 13.4054129464286  3.46153846153846 13.1529017857143  3.46153846153846 12.8571428571429  C 3.46153846153846 12.5613839285714  3.34885817307692 12.3088727678571  3.12349759615385 12.099609375  C 2.89813701923077 11.8903459821429  2.62620192307692 11.7857142857143  2.30769230769231 11.7857142857143  C 1.98918269230769 11.7857142857143  1.71724759615385 11.8903459821429  1.49188701923077 12.099609375  C 1.26652644230769 12.3088727678571  1.15384615384615 12.5613839285714  1.15384615384615 12.8571428571429  C 1.15384615384615 13.1529017857143  1.26652644230769 13.4054129464286  1.49188701923077 13.6146763392857  C 1.71724759615385 13.8239397321429  1.98918269230769 13.9285714285714  2.30769230769231 13.9285714285714  C 2.62620192307692 13.9285714285714  2.89813701923077 13.8239397321429  3.12349759615385 13.6146763392857  Z " stroke-width="2" stroke="#8087a7" fill="none" transform="matrix(1 0 0 1 26 471 )" mask="url(#clip48)" />
    <path d="M 6.58503605769231 13.6146763392857  C 6.81039663461538 13.4054129464286  6.92307692307692 13.1529017857143  6.92307692307692 12.8571428571429  C 6.92307692307692 12.5613839285714  6.81039663461538 12.3088727678571  6.58503605769231 12.099609375  C 6.35967548076923 11.8903459821429  6.08774038461539 11.7857142857143  5.76923076923077 11.7857142857143  C 5.45072115384615 11.7857142857143  5.17878605769231 11.8903459821429  4.95342548076923 12.099609375  C 4.72806490384615 12.3088727678571  4.61538461538462 12.5613839285714  4.61538461538462 12.8571428571429  C 4.61538461538462 13.1529017857143  4.72806490384615 13.4054129464286  4.95342548076923 13.6146763392857  C 5.17878605769231 13.8239397321429  5.45072115384615 13.9285714285714  5.76923076923077 13.9285714285714  C 6.08774038461539 13.9285714285714  6.35967548076923 13.8239397321429  6.58503605769231 13.6146763392857  Z " stroke-width="2" stroke="#8087a7" fill="none" transform="matrix(1 0 0 1 26 471 )" mask="url(#clip48)" />
    <path d="M 3.12349759615385 10.400390625  C 3.34885817307692 10.1911272321429  3.46153846153846 9.93861607142857  3.46153846153846 9.64285714285714  C 3.46153846153846 9.34709821428571  3.34885817307692 9.09458705357143  3.12349759615385 8.88532366071428  C 2.89813701923077 8.67606026785714  2.62620192307692 8.57142857142857  2.30769230769231 8.57142857142857  C 1.98918269230769 8.57142857142857  1.71724759615385 8.67606026785714  1.49188701923077 8.88532366071428  C 1.26652644230769 9.09458705357143  1.15384615384615 9.34709821428571  1.15384615384615 9.64285714285714  C 1.15384615384615 9.93861607142857  1.26652644230769 10.1911272321429  1.49188701923077 10.400390625  C 1.71724759615385 10.6096540178571  1.98918269230769 10.7142857142857  2.30769230769231 10.7142857142857  C 2.62620192307692 10.7142857142857  2.89813701923077 10.6096540178571  3.12349759615385 10.400390625  Z " stroke-width="2" stroke="#8087a7" fill="none" transform="matrix(1 0 0 1 26 471 )" mask="url(#clip48)" />
    <path d="M 10.0465745192308 13.6146763392857  C 10.2719350961538 13.4054129464286  10.3846153846154 13.1529017857143  10.3846153846154 12.8571428571429  C 10.3846153846154 12.5613839285714  10.2719350961538 12.3088727678571  10.0465745192308 12.099609375  C 9.82121394230769 11.8903459821429  9.54927884615385 11.7857142857143  9.23076923076923 11.7857142857143  C 8.91225961538462 11.7857142857143  8.64032451923077 11.8903459821429  8.41496394230769 12.099609375  C 8.18960336538462 12.3088727678571  8.07692307692308 12.5613839285714  8.07692307692308 12.8571428571429  C 8.07692307692308 13.1529017857143  8.18960336538462 13.4054129464286  8.41496394230769 13.6146763392857  C 8.64032451923077 13.8239397321429  8.91225961538462 13.9285714285714  9.23076923076923 13.9285714285714  C 9.54927884615385 13.9285714285714  9.82121394230769 13.8239397321429  10.0465745192308 13.6146763392857  Z " stroke-width="2" stroke="#8087a7" fill="none" transform="matrix(1 0 0 1 26 471 )" mask="url(#clip48)" />
    <path d="M 6.58503605769231 10.400390625  C 6.81039663461538 10.1911272321429  6.92307692307692 9.93861607142857  6.92307692307692 9.64285714285714  C 6.92307692307692 9.34709821428571  6.81039663461538 9.09458705357143  6.58503605769231 8.88532366071428  C 6.35967548076923 8.67606026785714  6.08774038461539 8.57142857142857  5.76923076923077 8.57142857142857  C 5.45072115384615 8.57142857142857  5.17878605769231 8.67606026785714  4.95342548076923 8.88532366071428  C 4.72806490384615 9.09458705357143  4.61538461538462 9.34709821428571  4.61538461538462 9.64285714285714  C 4.61538461538462 9.93861607142857  4.72806490384615 10.1911272321429  4.95342548076923 10.400390625  C 5.17878605769231 10.6096540178571  5.45072115384615 10.7142857142857  5.76923076923077 10.7142857142857  C 6.08774038461539 10.7142857142857  6.35967548076923 10.6096540178571  6.58503605769231 10.400390625  Z " stroke-width="2" stroke="#8087a7" fill="none" transform="matrix(1 0 0 1 26 471 )" mask="url(#clip48)" />
    <path d="M 3.12349759615385 7.18610491071429  C 3.34885817307692 6.97684151785714  3.46153846153846 6.72433035714286  3.46153846153846 6.42857142857143  C 3.46153846153846 6.1328125  3.34885817307692 5.88030133928571  3.12349759615385 5.67103794642857  C 2.89813701923077 5.46177455357143  2.62620192307692 5.35714285714286  2.30769230769231 5.35714285714286  C 1.98918269230769 5.35714285714286  1.71724759615385 5.46177455357143  1.49188701923077 5.67103794642857  C 1.26652644230769 5.88030133928571  1.15384615384615 6.1328125  1.15384615384615 6.42857142857143  C 1.15384615384615 6.72433035714286  1.26652644230769 6.97684151785714  1.49188701923077 7.18610491071429  C 1.71724759615385 7.39536830357143  1.98918269230769 7.5  2.30769230769231 7.5  C 2.62620192307692 7.5  2.89813701923077 7.39536830357143  3.12349759615385 7.18610491071429  Z " stroke-width="2" stroke="#8087a7" fill="none" transform="matrix(1 0 0 1 26 471 )" mask="url(#clip48)" />
    <path d="M 10.0465745192308 10.400390625  C 10.2719350961538 10.1911272321429  10.3846153846154 9.93861607142857  10.3846153846154 9.64285714285714  C 10.3846153846154 9.34709821428571  10.2719350961538 9.09458705357143  10.0465745192308 8.88532366071428  C 9.82121394230769 8.67606026785714  9.54927884615385 8.57142857142857  9.23076923076923 8.57142857142857  C 8.91225961538462 8.57142857142857  8.64032451923077 8.67606026785714  8.41496394230769 8.88532366071428  C 8.18960336538462 9.09458705357143  8.07692307692308 9.34709821428571  8.07692307692308 9.64285714285714  C 8.07692307692308 9.93861607142857  8.18960336538462 10.1911272321429  8.41496394230769 10.400390625  C 8.64032451923077 10.6096540178571  8.91225961538462 10.7142857142857  9.23076923076923 10.7142857142857  C 9.54927884615385 10.7142857142857  9.82121394230769 10.6096540178571  10.0465745192308 10.400390625  Z " stroke-width="2" stroke="#8087a7" fill="none" transform="matrix(1 0 0 1 26 471 )" mask="url(#clip48)" />
    <path d="M 6.58503605769231 7.18610491071429  C 6.81039663461538 6.97684151785714  6.92307692307692 6.72433035714286  6.92307692307692 6.42857142857143  C 6.92307692307692 6.1328125  6.81039663461538 5.88030133928571  6.58503605769231 5.67103794642857  C 6.35967548076923 5.46177455357143  6.08774038461539 5.35714285714286  5.76923076923077 5.35714285714286  C 5.45072115384615 5.35714285714286  5.17878605769231 5.46177455357143  4.95342548076923 5.67103794642857  C 4.72806490384615 5.88030133928571  4.61538461538462 6.1328125  4.61538461538462 6.42857142857143  C 4.61538461538462 6.72433035714286  4.72806490384615 6.97684151785714  4.95342548076923 7.18610491071429  C 5.17878605769231 7.39536830357143  5.45072115384615 7.5  5.76923076923077 7.5  C 6.08774038461539 7.5  6.35967548076923 7.39536830357143  6.58503605769231 7.18610491071429  Z " stroke-width="2" stroke="#8087a7" fill="none" transform="matrix(1 0 0 1 26 471 )" mask="url(#clip48)" />
    <path d="M 13.5036057692308 13.6104910714286  C 13.7319711538462 13.3984375  13.8461538461538 13.1473214285714  13.8461538461538 12.8571428571429  L 13.8461538461538 9.64285714285714  C 13.8461538461538 9.35267857142857  13.7319711538462 9.1015625  13.5036057692308 8.88950892857143  C 13.2752403846154 8.67745535714286  13.0048076923077 8.57142857142857  12.6923076923077 8.57142857142857  C 12.3798076923077 8.57142857142857  12.109375 8.67745535714286  11.8810096153846 8.88950892857143  C 11.6526442307692 9.1015625  11.5384615384615 9.35267857142857  11.5384615384615 9.64285714285714  L 11.5384615384615 12.8571428571429  C 11.5384615384615 13.1473214285714  11.6526442307692 13.3984375  11.8810096153846 13.6104910714286  C 12.109375 13.8225446428571  12.3798076923077 13.9285714285714  12.6923076923077 13.9285714285714  C 13.0048076923077 13.9285714285714  13.2752403846154 13.8225446428571  13.5036057692308 13.6104910714286  Z " stroke-width="2" stroke="#8087a7" fill="none" transform="matrix(1 0 0 1 26 471 )" mask="url(#clip48)" />
    <path d="M 10.0465745192308 7.18610491071429  C 10.2719350961538 6.97684151785714  10.3846153846154 6.72433035714286  10.3846153846154 6.42857142857143  C 10.3846153846154 6.1328125  10.2719350961538 5.88030133928571  10.0465745192308 5.67103794642857  C 9.82121394230769 5.46177455357143  9.54927884615385 5.35714285714286  9.23076923076923 5.35714285714286  C 8.91225961538462 5.35714285714286  8.64032451923077 5.46177455357143  8.41496394230769 5.67103794642857  C 8.18960336538462 5.88030133928571  8.07692307692308 6.1328125  8.07692307692308 6.42857142857143  C 8.07692307692308 6.72433035714286  8.18960336538462 6.97684151785714  8.41496394230769 7.18610491071429  C 8.64032451923077 7.39536830357143  8.91225961538462 7.5  9.23076923076923 7.5  C 9.54927884615385 7.5  9.82121394230769 7.39536830357143  10.0465745192308 7.18610491071429  Z " stroke-width="2" stroke="#8087a7" fill="none" transform="matrix(1 0 0 1 26 471 )" mask="url(#clip48)" />
    <path d="M 13.6748798076923 4.12667410714286  C 13.7890625 4.02064732142857  13.8461538461538 3.89508928571428  13.8461538461538 3.75  L 13.8461538461538 1.60714285714286  C 13.8461538461538 1.46205357142857  13.7890625 1.33649553571428  13.6748798076923 1.23046875  C 13.5606971153846 1.12444196428571  13.4254807692308 1.07142857142857  13.2692307692308 1  L 1.73076923076923 1  C 1.57451923076923 1.07142857142857  1.43930288461538 1.12444196428571  1.32512019230769 1.23046875  C 1.2109375 1.33649553571428  1.15384615384615 1.46205357142857  1.15384615384615 1.60714285714286  L 1.15384615384615 3.75  C 1.15384615384615 3.89508928571428  1.2109375 4.02064732142857  1.32512019230769 4.12667410714286  C 1.43930288461538 4.23270089285714  1.57451923076923 4.28571428571429  1.73076923076923 4.28571428571429  L 13.2692307692308 4.28571428571429  C 13.4254807692308 4.28571428571429  13.5606971153846 4.23270089285714  13.6748798076923 4.12667410714286  Z " stroke-width="2" stroke="#8087a7" fill="none" transform="matrix(1 0 0 1 26 471 )" mask="url(#clip48)" />
    <path d="M 13.5081129807692 7.18610491071429  C 13.7334735576923 6.97684151785714  13.8461538461538 6.72433035714286  13.8461538461538 6.42857142857143  C 13.8461538461538 6.1328125  13.7334735576923 5.88030133928571  13.5081129807692 5.67103794642857  C 13.2827524038462 5.46177455357143  13.0108173076923 5.35714285714286  12.6923076923077 5.35714285714286  C 12.3737980769231 5.35714285714286  12.1018629807692 5.46177455357143  11.8765024038462 5.67103794642857  C 11.6511418269231 5.88030133928571  11.5384615384615 6.1328125  11.5384615384615 6.42857142857143  C 11.5384615384615 6.72433035714286  11.6511418269231 6.97684151785714  11.8765024038462 7.18610491071429  C 12.1018629807692 7.39536830357143  12.3737980769231 7.5  12.6923076923077 7.5  C 13.0108173076923 7.5  13.2827524038462 7.39536830357143  13.5081129807692 7.18610491071429  Z " stroke-width="2" stroke="#8087a7" fill="none" transform="matrix(1 0 0 1 26 471 )" mask="url(#clip48)" />
    <path d="M 14.6574519230769 0.318080357142856  C 14.8858173076923 0.530133928571428  15 0.781249999999999  15 1.07142857142857  L 15 13.9285714285714  C 15 14.21875  14.8858173076923 14.4698660714286  14.6574519230769 14.6819196428571  C 14.4290865384615 14.8939732142857  14.1586538461538 15  13.8461538461538 15  L 1.15384615384615 15  C 0.841346153846154 15  0.570913461538462 14.8939732142857  0.342548076923077 14.6819196428571  C 0.114182692307692 14.4698660714286  0 14.21875  0 13.9285714285714  L 0 1.07142857142857  C 0 0.781249999999999  0.114182692307692 0.530133928571428  0.342548076923077 0.318080357142856  C 0.570913461538462 0.106026785714287  0.841346153846154 0  1.15384615384615 0  L 13.8461538461538 0  C 14.1586538461538 0  14.4290865384615 0.106026785714287  14.6574519230769 0.318080357142856  Z " stroke-width="2" stroke="#8087a7" fill="none" transform="matrix(1 0 0 1 26 471 )" mask="url(#clip48)" />
  </g>
</svg>