<?xml version="1.0" encoding="utf-8"?>
<svg version="1.1" xmlns:xlink="http://www.w3.org/1999/xlink" width="30px" height="30px" xmlns="http://www.w3.org/2000/svg">
  <g transform="matrix(1 0 0 1 -1765 -224 )">
    <path d="M 28.427734375 9.96995192307692  C 29.4759114583333 11.9050480769231  30 13.9663461538462  30 16.1538461538462  C 30 18.0288461538462  29.6028645833333 19.8197115384615  28.80859375 21.5264423076923  C 28.0143229166667 23.2331730769231  26.9466145833333 24.7055288461538  25.60546875 25.9435096153846  C 24.2643229166667 27.1814903846154  22.6692708333333 28.1670673076923  20.8203125 28.9002403846154  C 18.9713541666667 29.6334134615385  17.03125 30  15 30  C 12.96875 30  11.0286458333333 29.6334134615385  9.1796875 28.9002403846154  C 7.33072916666667 28.1670673076923  5.73567708333333 27.1814903846154  4.39453125 25.9435096153846  C 3.05338541666667 24.7055288461538  1.98567708333333 23.2331730769231  1.19140625 21.5264423076923  C 0.397135416666667 19.8197115384615  0 18.0288461538462  0 16.1538461538462  C 0 13.9663461538462  0.524088541666667 11.9050480769231  1.572265625 9.96995192307692  C 2.62044270833333 8.03485576923077  4.09505208333333 6.41225961538461  5.99609375 5.10216346153846  C 6.55598958333333 4.71754807692307  7.177734375 4.56730769230769  7.861328125 4.65144230769231  C 8.544921875 4.73557692307692  9.08854166666667 5.03605769230769  9.4921875 5.55288461538462  C 9.90885416666667 6.05769230769231  10.068359375 6.62560096153846  9.970703125 7.25661057692308  C 9.873046875 7.88762019230769  9.55078125 8.39543269230769  9.00390625 8.78004807692308  C 7.72786458333333 9.66947115384615  6.74153645833333 10.7572115384615  6.044921875 12.0432692307692  C 5.34830729166667 13.3293269230769  5 14.6995192307692  5 16.1538461538462  C 5 17.4038461538462  5.263671875 18.5967548076923  5.791015625 19.7325721153846  C 6.318359375 20.8683894230769  7.03125 21.8509615384615  7.9296875 22.6802884615385  C 8.828125 23.5096153846154  9.892578125 24.1676682692308  11.123046875 24.6544471153846  C 12.353515625 25.1412259615385  13.6458333333333 25.3846153846154  15 25.3846153846154  C 16.3541666666667 25.3846153846154  17.646484375 25.1412259615385  18.876953125 24.6544471153846  C 20.107421875 24.1676682692308  21.171875 23.5096153846154  22.0703125 22.6802884615385  C 22.96875 21.8509615384615  23.681640625 20.8683894230769  24.208984375 19.7325721153846  C 24.736328125 18.5967548076923  25 17.4038461538462  25 16.1538461538462  C 25 14.6995192307692  24.6516927083333 13.3293269230769  23.955078125 12.0432692307692  C 23.2584635416667 10.7572115384615  22.2721354166667 9.66947115384615  20.99609375 8.78004807692308  C 20.44921875 8.39543269230769  20.126953125 7.88762019230769  20.029296875 7.25661057692308  C 19.931640625 6.62560096153846  20.0911458333333 6.05769230769231  20.5078125 5.55288461538462  C 20.9114583333333 5.03605769230769  21.4583333333333 4.73557692307692  22.1484375 4.65144230769231  C 22.8385416666667 4.56730769230769  23.45703125 4.71754807692307  24.00390625 5.10216346153846  C 25.9049479166667 6.41225961538461  27.3795572916667 8.03485576923077  28.427734375 9.96995192307692  Z M 16.7578125 0.685096153846153  C 17.2526041666667 1.14182692307692  17.5 1.68269230769231  17 2.30769230769231  L 17 13.8461538461538  C 17.5 14.4711538461538  17.2526041666667 15.0120192307692  16.7578125 15.46875  C 16.2630208333333 15.9254807692308  15.6770833333333 16.1538461538462  15 16.1538461538462  C 14.3229166666667 16.1538461538462  13.7369791666667 15.9254807692308  13.2421875 15.46875  C 12.7473958333333 15.0120192307692  12.5 14.4711538461538  13 13.8461538461538  L 13 2.30769230769231  C 12.5 1.68269230769231  12.7473958333333 1.14182692307692  13.2421875 0.685096153846153  C 13.7369791666667 0.228365384615385  14.3229166666667 0  15 0  C 15.6770833333333 0  16.2630208333333 0.228365384615385  16.7578125 0.685096153846153  Z " fill-rule="nonzero" fill="#51af92" stroke="none" transform="matrix(1 0 0 1 1765 224 )" />
  </g>
</svg>