<?xml version="1.0" encoding="utf-8"?>
<svg version="1.1" xmlns:xlink="http://www.w3.org/1999/xlink" width="15px" height="15px" xmlns="http://www.w3.org/2000/svg">
  <defs>
    <mask fill="white" id="clip47">
      <path d="M 2.8125 7.5  L 4.6875 7.5  L 4.6875 12.5  L 2.8125 12.5  L 2.8125 7.5  Z M 5.625 2.5  L 7.5 2.5  L 7.5 12.5  L 5.625 12.5  L 5.625 2.5  Z M 0.9375 13.75  L 15 13.75  L 15 15  L 0 15  L 0 0  L 0.9375 0  L 0.9375 13.75  Z M 8.4375 5  L 10.3125 5  L 10.3125 12.5  L 8.4375 12.5  L 8.4375 5  Z M 11 1.25  L 13 1.25  L 13 12.5  L 11 12.5  L 11 1.25  Z " fill-rule="evenodd" />
    </mask>
  </defs>
  <g transform="matrix(1 0 0 1 -26 -505 )">
    <path d="M 2.8125 7.5  L 4.6875 7.5  L 4.6875 12.5  L 2.8125 12.5  L 2.8125 7.5  Z M 5.625 2.5  L 7.5 2.5  L 7.5 12.5  L 5.625 12.5  L 5.625 2.5  Z M 0.9375 13.75  L 15 13.75  L 15 15  L 0 15  L 0 0  L 0.9375 0  L 0.9375 13.75  Z M 8.4375 5  L 10.3125 5  L 10.3125 12.5  L 8.4375 12.5  L 8.4375 5  Z M 11 1.25  L 13 1.25  L 13 12.5  L 11 12.5  L 11 1.25  Z " fill-rule="nonzero" fill="#000000" stroke="none" fill-opacity="0" transform="matrix(1 0 0 1 26 505 )" />
    <path d="M 2.8125 7.5  L 4.6875 7.5  L 4.6875 12.5  L 2.8125 12.5  L 2.8125 7.5  Z " stroke-width="2" stroke="#8087a7" fill="none" transform="matrix(1 0 0 1 26 505 )" mask="url(#clip47)" />
    <path d="M 5.625 2.5  L 7.5 2.5  L 7.5 12.5  L 5.625 12.5  L 5.625 2.5  Z " stroke-width="2" stroke="#8087a7" fill="none" transform="matrix(1 0 0 1 26 505 )" mask="url(#clip47)" />
    <path d="M 0.9375 13.75  L 15 13.75  L 15 15  L 0 15  L 0 0  L 0.9375 0  L 0.9375 13.75  Z " stroke-width="2" stroke="#8087a7" fill="none" transform="matrix(1 0 0 1 26 505 )" mask="url(#clip47)" />
    <path d="M 8.4375 5  L 10.3125 5  L 10.3125 12.5  L 8.4375 12.5  L 8.4375 5  Z " stroke-width="2" stroke="#8087a7" fill="none" transform="matrix(1 0 0 1 26 505 )" mask="url(#clip47)" />
    <path d="M 11 1.25  L 13 1.25  L 13 12.5  L 11 12.5  L 11 1.25  Z " stroke-width="2" stroke="#8087a7" fill="none" transform="matrix(1 0 0 1 26 505 )" mask="url(#clip47)" />
  </g>
</svg>