<?xml version="1.0" encoding="utf-8"?>
<svg version="1.1" xmlns:xlink="http://www.w3.org/1999/xlink" width="15px" height="10px" xmlns="http://www.w3.org/2000/svg">
  <defs>
    <mask fill="white" id="clip49">
      <path d="M 6.10331632653061 9.14453125  C 6.0969387755102 9.17317708333333  6.10331632653061 9.20833333333333  6.12244897959184 9.25  C 6.12244897959184 9.27083333333333  6.12563775510204 9.32291666666667  6.13201530612245 9.40625  C 6.13839285714286 9.48958333333333  6.13998724489796 9.55859375  6.13679846938776 9.61328125  C 6.13360969387755 9.66796875  6.12404336734694 9.72916666666667  6.10809948979592 9.796875  C 6.0921556122449 9.86458333333333  6.06026785714286 9.91536458333333  6.0124362244898 9.94921875  C 5.96460459183673 9.98307291666667  5.89923469387755 10  5.81632653061224 10  L 2.75510204081633 10  C 1.99617346938776 10  1.34725765306122 9.77994791666667  0.808354591836735 9.33984375  C 0.269451530612245 8.89973958333333  0 8.36979166666667  0 7.75  L 0 2.25  C 0 1.63020833333333  0.269451530612245 1.10026041666667  0.808354591836735 0.66015625  C 1.34725765306122 0.220052083333332  1.99617346938776 0  2.75510204081633 0  L 5.81632653061224 0  C 5.89923469387755 0  5.97098214285714 0.0247395833333319  6.03156887755102 0.0742187500000002  C 6.0921556122449 0.123697916666666  6.12244897959184 0.182291666666666  6.12244897959184 0.25  C 6.12244897959184 0.270833333333332  6.12563775510204 0.322916666666666  6.13201530612245 0.40625  C 6.13839285714286 0.489583333333332  6.13998724489796 0.55859375  6.13679846938776 0.61328125  C 6.13360969387755 0.66796875  6.12404336734694 0.729166666666666  6.10809948979592 0.796875  C 6.0921556122449 0.864583333333332  6.06026785714286 0.915364583333332  6.0124362244898 0.94921875  C 5.96460459183673 0.983072916666666  5.89923469387755 1  5.81632653061224 1  L 2.75510204081633 1  C 2.33418367346939 1  1.97385204081633 1.12239583333333  1.67410714285714 1.3671875  C 1.37436224489796 1.61197916666667  1.22448979591837 1.90625  1.22448979591837 2.25  L 1.22448979591837 7.75  C 1.22448979591837 8.09375  1.37436224489796 8.38802083333333  1.67410714285714 8.6328125  C 1.97385204081633 8.87760416666667  2.33418367346939 9  2.75510204081633 9  L 5.51020408163265 9  L 5.61543367346939 9  L 5.73979591836735 9  C 5.73979591836735 9  5.77646683673469 9.00260416666667  5.84980867346939 9.0078125  C 5.92315051020408 9.01302083333333  5.95982142857143 9.02083333333333  5.95982142857143 9.03125  C 5.95982142857143 9.04166666666667  5.98533163265306 9.05598958333333  6.03635204081633 9.07421875  C 6.08737244897959 9.09244791666667  6.10969387755102 9.11588541666667  6.10331632653061 9.14453125  Z M 14.8182397959184 4.6484375  C 14.9394132653061 4.74739583333333  15 4.86458333333333  15 5  C 15 5.13541666666667  14.9394132653061 5.25260416666667  14.8182397959184 5.3515625  L 9.61415816326531 9.6015625  C 9.49298469387755 9.70052083333333  9.34948979591837 9.75  9.18367346938776 9.75  C 9.01785714285714 9.75  8.87436224489796 9.70052083333333  8.7531887755102 9.6015625  C 8.63201530612245 9.50260416666667  8.57142857142857 9.38541666666667  8.57142857142857 9.25  L 8.57142857142857 7  L 4.28571428571429 7  C 4.11989795918367 7  3.97640306122449 6.95052083333333  3.85522959183673 6.8515625  C 3.73405612244898 6.75260416666667  3.6734693877551 6.63541666666667  3.6734693877551 6.5  L 3.6734693877551 3.5  C 3.6734693877551 3.36458333333333  3.73405612244898 3.24739583333333  3.85522959183673 3.1484375  C 3.97640306122449 3.04947916666667  4.11989795918367 3  4.28571428571429 3  L 8.57142857142857 3  L 8.57142857142857 0.75  C 8.57142857142857 0.614583333333332  8.63201530612245 0.497395833333332  8.7531887755102 0.3984375  C 8.87436224489796 0.299479166666666  9.01785714285714 0.25  9.18367346938776 0.25  C 9.34948979591837 0.25  9.49298469387755 0.299479166666666  9.61415816326531 0.3984375  L 14.8182397959184 4.6484375  Z " fill-rule="evenodd" />
    </mask>
  </defs>
  <g transform="matrix(1 0 0 1 -24 -108 )">
    <path d="M 6.10331632653061 9.14453125  C 6.0969387755102 9.17317708333333  6.10331632653061 9.20833333333333  6.12244897959184 9.25  C 6.12244897959184 9.27083333333333  6.12563775510204 9.32291666666667  6.13201530612245 9.40625  C 6.13839285714286 9.48958333333333  6.13998724489796 9.55859375  6.13679846938776 9.61328125  C 6.13360969387755 9.66796875  6.12404336734694 9.72916666666667  6.10809948979592 9.796875  C 6.0921556122449 9.86458333333333  6.06026785714286 9.91536458333333  6.0124362244898 9.94921875  C 5.96460459183673 9.98307291666667  5.89923469387755 10  5.81632653061224 10  L 2.75510204081633 10  C 1.99617346938776 10  1.34725765306122 9.77994791666667  0.808354591836735 9.33984375  C 0.269451530612245 8.89973958333333  0 8.36979166666667  0 7.75  L 0 2.25  C 0 1.63020833333333  0.269451530612245 1.10026041666667  0.808354591836735 0.66015625  C 1.34725765306122 0.220052083333332  1.99617346938776 0  2.75510204081633 0  L 5.81632653061224 0  C 5.89923469387755 0  5.97098214285714 0.0247395833333319  6.03156887755102 0.0742187500000002  C 6.0921556122449 0.123697916666666  6.12244897959184 0.182291666666666  6.12244897959184 0.25  C 6.12244897959184 0.270833333333332  6.12563775510204 0.322916666666666  6.13201530612245 0.40625  C 6.13839285714286 0.489583333333332  6.13998724489796 0.55859375  6.13679846938776 0.61328125  C 6.13360969387755 0.66796875  6.12404336734694 0.729166666666666  6.10809948979592 0.796875  C 6.0921556122449 0.864583333333332  6.06026785714286 0.915364583333332  6.0124362244898 0.94921875  C 5.96460459183673 0.983072916666666  5.89923469387755 1  5.81632653061224 1  L 2.75510204081633 1  C 2.33418367346939 1  1.97385204081633 1.12239583333333  1.67410714285714 1.3671875  C 1.37436224489796 1.61197916666667  1.22448979591837 1.90625  1.22448979591837 2.25  L 1.22448979591837 7.75  C 1.22448979591837 8.09375  1.37436224489796 8.38802083333333  1.67410714285714 8.6328125  C 1.97385204081633 8.87760416666667  2.33418367346939 9  2.75510204081633 9  L 5.51020408163265 9  L 5.61543367346939 9  L 5.73979591836735 9  C 5.73979591836735 9  5.77646683673469 9.00260416666667  5.84980867346939 9.0078125  C 5.92315051020408 9.01302083333333  5.95982142857143 9.02083333333333  5.95982142857143 9.03125  C 5.95982142857143 9.04166666666667  5.98533163265306 9.05598958333333  6.03635204081633 9.07421875  C 6.08737244897959 9.09244791666667  6.10969387755102 9.11588541666667  6.10331632653061 9.14453125  Z M 14.8182397959184 4.6484375  C 14.9394132653061 4.74739583333333  15 4.86458333333333  15 5  C 15 5.13541666666667  14.9394132653061 5.25260416666667  14.8182397959184 5.3515625  L 9.61415816326531 9.6015625  C 9.49298469387755 9.70052083333333  9.34948979591837 9.75  9.18367346938776 9.75  C 9.01785714285714 9.75  8.87436224489796 9.70052083333333  8.7531887755102 9.6015625  C 8.63201530612245 9.50260416666667  8.57142857142857 9.38541666666667  8.57142857142857 9.25  L 8.57142857142857 7  L 4.28571428571429 7  C 4.11989795918367 7  3.97640306122449 6.95052083333333  3.85522959183673 6.8515625  C 3.73405612244898 6.75260416666667  3.6734693877551 6.63541666666667  3.6734693877551 6.5  L 3.6734693877551 3.5  C 3.6734693877551 3.36458333333333  3.73405612244898 3.24739583333333  3.85522959183673 3.1484375  C 3.97640306122449 3.04947916666667  4.11989795918367 3  4.28571428571429 3  L 8.57142857142857 3  L 8.57142857142857 0.75  C 8.57142857142857 0.614583333333332  8.63201530612245 0.497395833333332  8.7531887755102 0.3984375  C 8.87436224489796 0.299479166666666  9.01785714285714 0.25  9.18367346938776 0.25  C 9.34948979591837 0.25  9.49298469387755 0.299479166666666  9.61415816326531 0.3984375  L 14.8182397959184 4.6484375  Z " fill-rule="nonzero" fill="#000000" stroke="none" fill-opacity="0" transform="matrix(1 0 0 1 24 108 )" />
    <path d="M 6.10331632653061 9.14453125  C 6.0969387755102 9.17317708333333  6.10331632653061 9.20833333333333  6.12244897959184 9.25  C 6.12244897959184 9.27083333333333  6.12563775510204 9.32291666666667  6.13201530612245 9.40625  C 6.13839285714286 9.48958333333333  6.13998724489796 9.55859375  6.13679846938776 9.61328125  C 6.13360969387755 9.66796875  6.12404336734694 9.72916666666667  6.10809948979592 9.796875  C 6.0921556122449 9.86458333333333  6.06026785714286 9.91536458333333  6.0124362244898 9.94921875  C 5.96460459183673 9.98307291666667  5.89923469387755 10  5.81632653061224 10  L 2.75510204081633 10  C 1.99617346938776 10  1.34725765306122 9.77994791666667  0.808354591836735 9.33984375  C 0.269451530612245 8.89973958333333  0 8.36979166666667  0 7.75  L 0 2.25  C 0 1.63020833333333  0.269451530612245 1.10026041666667  0.808354591836735 0.66015625  C 1.34725765306122 0.220052083333332  1.99617346938776 0  2.75510204081633 0  L 5.81632653061224 0  C 5.89923469387755 0  5.97098214285714 0.0247395833333319  6.03156887755102 0.0742187500000002  C 6.0921556122449 0.123697916666666  6.12244897959184 0.182291666666666  6.12244897959184 0.25  C 6.12244897959184 0.270833333333332  6.12563775510204 0.322916666666666  6.13201530612245 0.40625  C 6.13839285714286 0.489583333333332  6.13998724489796 0.55859375  6.13679846938776 0.61328125  C 6.13360969387755 0.66796875  6.12404336734694 0.729166666666666  6.10809948979592 0.796875  C 6.0921556122449 0.864583333333332  6.06026785714286 0.915364583333332  6.0124362244898 0.94921875  C 5.96460459183673 0.983072916666666  5.89923469387755 1  5.81632653061224 1  L 2.75510204081633 1  C 2.33418367346939 1  1.97385204081633 1.12239583333333  1.67410714285714 1.3671875  C 1.37436224489796 1.61197916666667  1.22448979591837 1.90625  1.22448979591837 2.25  L 1.22448979591837 7.75  C 1.22448979591837 8.09375  1.37436224489796 8.38802083333333  1.67410714285714 8.6328125  C 1.97385204081633 8.87760416666667  2.33418367346939 9  2.75510204081633 9  L 5.51020408163265 9  L 5.61543367346939 9  L 5.73979591836735 9  C 5.73979591836735 9  5.77646683673469 9.00260416666667  5.84980867346939 9.0078125  C 5.92315051020408 9.01302083333333  5.95982142857143 9.02083333333333  5.95982142857143 9.03125  C 5.95982142857143 9.04166666666667  5.98533163265306 9.05598958333333  6.03635204081633 9.07421875  C 6.08737244897959 9.09244791666667  6.10969387755102 9.11588541666667  6.10331632653061 9.14453125  Z " stroke-width="2" stroke="#8087a7" fill="none" transform="matrix(1 0 0 1 24 108 )" mask="url(#clip49)" />
    <path d="M 14.8182397959184 4.6484375  C 14.9394132653061 4.74739583333333  15 4.86458333333333  15 5  C 15 5.13541666666667  14.9394132653061 5.25260416666667  14.8182397959184 5.3515625  L 9.61415816326531 9.6015625  C 9.49298469387755 9.70052083333333  9.34948979591837 9.75  9.18367346938776 9.75  C 9.01785714285714 9.75  8.87436224489796 9.70052083333333  8.7531887755102 9.6015625  C 8.63201530612245 9.50260416666667  8.57142857142857 9.38541666666667  8.57142857142857 9.25  L 8.57142857142857 7  L 4.28571428571429 7  C 4.11989795918367 7  3.97640306122449 6.95052083333333  3.85522959183673 6.8515625  C 3.73405612244898 6.75260416666667  3.6734693877551 6.63541666666667  3.6734693877551 6.5  L 3.6734693877551 3.5  C 3.6734693877551 3.36458333333333  3.73405612244898 3.24739583333333  3.85522959183673 3.1484375  C 3.97640306122449 3.04947916666667  4.11989795918367 3  4.28571428571429 3  L 8.57142857142857 3  L 8.57142857142857 0.75  C 8.57142857142857 0.614583333333332  8.63201530612245 0.497395833333332  8.7531887755102 0.3984375  C 8.87436224489796 0.299479166666666  9.01785714285714 0.25  9.18367346938776 0.25  C 9.34948979591837 0.25  9.49298469387755 0.299479166666666  9.61415816326531 0.3984375  L 14.8182397959184 4.6484375  Z " stroke-width="2" stroke="#8087a7" fill="none" transform="matrix(1 0 0 1 24 108 )" mask="url(#clip49)" />
  </g>
</svg>