<?xml version="1.0" encoding="utf-8"?>
<svg version="1.1" xmlns:xlink="http://www.w3.org/1999/xlink" width="15px" height="15px" xmlns="http://www.w3.org/2000/svg">
  <defs>
    <mask fill="white" id="clip51">
      <path d="M 14.765625 10.2734375  C 14.921875 10.4557291666667  15 10.6770833333333  15 10.9375  L 15 14.0625  C 15 14.3229166666667  14.921875 14.5442708333333  14.765625 14.7265625  C 14.609375 14.9088541666667  14.4196428571429 15  14.1964285714286 15  L 11.5178571428571 15  C 11.2946428571429 15  11.1049107142857 14.9088541666667  10.9486607142857 14.7265625  C 10.7924107142857 14.5442708333333  10.7142857142857 14.3229166666667  10.7142857142857 14.0625  L 10.7142857142857 10.9375  C 10.7142857142857 10.6770833333333  10.7924107142857 10.4557291666667  10.9486607142857 10.2734375  C 11.1049107142857 10.0911458333333  11.2946428571429 10  11.5178571428571 10  L 12.3214285714286 10  L 12.3214285714286 8.125  L 8.03571428571428 8.125  L 8.03571428571428 10  L 8.83928571428572 10  C 9.0625 10  9.25223214285714 10.0911458333333  9.40848214285714 10.2734375  C 9.56473214285714 10.4557291666667  9.64285714285714 10.6770833333333  9.64285714285714 10.9375  L 9.64285714285714 14.0625  C 9.64285714285714 14.3229166666667  9.56473214285714 14.5442708333333  9.40848214285714 14.7265625  C 9.25223214285714 14.9088541666667  9.0625 15  8.83928571428572 15  L 6.16071428571429 15  C 5.9375 15  5.74776785714286 14.9088541666667  5.59151785714286 14.7265625  C 5.43526785714286 14.5442708333333  5.35714285714286 14.3229166666667  5.35714285714286 14.0625  L 5.35714285714286 10.9375  C 5.35714285714286 10.6770833333333  5.43526785714286 10.4557291666667  5.59151785714286 10.2734375  C 5.74776785714286 10.0911458333333  5.9375 10  6.16071428571429 10  L 6.96428571428571 10  L 6.96428571428571 8.125  L 2.67857142857143 8.125  L 2.67857142857143 10  L 3.48214285714286 10  C 3.70535714285714 10  3.89508928571429 10.0911458333333  4.05133928571429 10.2734375  C 4.20758928571429 10.4557291666667  4.28571428571429 10.6770833333333  4.28571428571429 10.9375  L 4.28571428571429 14.0625  C 4.28571428571429 14.3229166666667  4.20758928571429 14.5442708333333  4.05133928571429 14.7265625  C 3.89508928571429 14.9088541666667  3.70535714285714 15  3.48214285714286 15  L 0.803571428571428 15  C 0.580357142857143 15  0.390625 14.9088541666667  0.234375 14.7265625  C 0.078125 14.5442708333333  0 14.3229166666667  0 14.0625  L 0 10.9375  C 0 10.6770833333333  0.078125 10.4557291666667  0.234375 10.2734375  C 0.390625 10.0911458333333  0.580357142857143 10  0.803571428571428 10  L 1.60714285714286 10  L 1.60714285714286 8.125  C 1.60714285714286 7.78645833333333  1.71316964285714 7.49348958333333  1.92522321428571 7.24609375  C 2.13727678571429 6.99869791666667  2.38839285714286 6.875  2.67857142857143 6.875  L 6.96428571428571 6.875  L 6.96428571428571 5  L 6.16071428571429 5  C 5.9375 5  5.74776785714286 4.90885416666666  5.59151785714286 4.7265625  C 5.43526785714286 4.54427083333333  5.35714285714286 4.32291666666666  5.35714285714286 4.0625  L 5.35714285714286 0.9375  C 5.35714285714286 0.677083333333333  5.43526785714286 0.455729166666665  5.59151785714286 0.273437499999999  C 5.74776785714286 0.0911458333333326  5.9375 0  6.16071428571429 0  L 8.83928571428572 0  C 9.0625 0  9.25223214285714 0.0911458333333326  9.40848214285714 0.273437499999999  C 9.56473214285714 0.455729166666665  9.64285714285714 0.677083333333333  9.64285714285714 0.9375  L 9.64285714285714 4.0625  C 9.64285714285714 4.32291666666666  9.56473214285714 4.54427083333333  9.40848214285714 4.7265625  C 9.25223214285714 4.90885416666666  9.0625 5  8.83928571428572 5  L 8.03571428571428 5  L 8.03571428571428 6.875  L 12.3214285714286 6.875  C 12.6116071428571 6.875  12.8627232142857 6.99869791666667  13.0747767857143 7.24609375  C 13.2868303571429 7.49348958333333  13.3928571428571 7.78645833333333  13.3928571428571 8.125  L 13.3928571428571 10  L 14.1964285714286 10  C 14.4196428571429 10  14.609375 10.0911458333333  14.765625 10.2734375  Z " fill-rule="evenodd" />
    </mask>
  </defs>
  <g transform="matrix(1 0 0 1 -26 -436 )">
    <path d="M 14.765625 10.2734375  C 14.921875 10.4557291666667  15 10.6770833333333  15 10.9375  L 15 14.0625  C 15 14.3229166666667  14.921875 14.5442708333333  14.765625 14.7265625  C 14.609375 14.9088541666667  14.4196428571429 15  14.1964285714286 15  L 11.5178571428571 15  C 11.2946428571429 15  11.1049107142857 14.9088541666667  10.9486607142857 14.7265625  C 10.7924107142857 14.5442708333333  10.7142857142857 14.3229166666667  10.7142857142857 14.0625  L 10.7142857142857 10.9375  C 10.7142857142857 10.6770833333333  10.7924107142857 10.4557291666667  10.9486607142857 10.2734375  C 11.1049107142857 10.0911458333333  11.2946428571429 10  11.5178571428571 10  L 12.3214285714286 10  L 12.3214285714286 8.125  L 8.03571428571428 8.125  L 8.03571428571428 10  L 8.83928571428572 10  C 9.0625 10  9.25223214285714 10.0911458333333  9.40848214285714 10.2734375  C 9.56473214285714 10.4557291666667  9.64285714285714 10.6770833333333  9.64285714285714 10.9375  L 9.64285714285714 14.0625  C 9.64285714285714 14.3229166666667  9.56473214285714 14.5442708333333  9.40848214285714 14.7265625  C 9.25223214285714 14.9088541666667  9.0625 15  8.83928571428572 15  L 6.16071428571429 15  C 5.9375 15  5.74776785714286 14.9088541666667  5.59151785714286 14.7265625  C 5.43526785714286 14.5442708333333  5.35714285714286 14.3229166666667  5.35714285714286 14.0625  L 5.35714285714286 10.9375  C 5.35714285714286 10.6770833333333  5.43526785714286 10.4557291666667  5.59151785714286 10.2734375  C 5.74776785714286 10.0911458333333  5.9375 10  6.16071428571429 10  L 6.96428571428571 10  L 6.96428571428571 8.125  L 2.67857142857143 8.125  L 2.67857142857143 10  L 3.48214285714286 10  C 3.70535714285714 10  3.89508928571429 10.0911458333333  4.05133928571429 10.2734375  C 4.20758928571429 10.4557291666667  4.28571428571429 10.6770833333333  4.28571428571429 10.9375  L 4.28571428571429 14.0625  C 4.28571428571429 14.3229166666667  4.20758928571429 14.5442708333333  4.05133928571429 14.7265625  C 3.89508928571429 14.9088541666667  3.70535714285714 15  3.48214285714286 15  L 0.803571428571428 15  C 0.580357142857143 15  0.390625 14.9088541666667  0.234375 14.7265625  C 0.078125 14.5442708333333  0 14.3229166666667  0 14.0625  L 0 10.9375  C 0 10.6770833333333  0.078125 10.4557291666667  0.234375 10.2734375  C 0.390625 10.0911458333333  0.580357142857143 10  0.803571428571428 10  L 1.60714285714286 10  L 1.60714285714286 8.125  C 1.60714285714286 7.78645833333333  1.71316964285714 7.49348958333333  1.92522321428571 7.24609375  C 2.13727678571429 6.99869791666667  2.38839285714286 6.875  2.67857142857143 6.875  L 6.96428571428571 6.875  L 6.96428571428571 5  L 6.16071428571429 5  C 5.9375 5  5.74776785714286 4.90885416666666  5.59151785714286 4.7265625  C 5.43526785714286 4.54427083333333  5.35714285714286 4.32291666666666  5.35714285714286 4.0625  L 5.35714285714286 0.9375  C 5.35714285714286 0.677083333333333  5.43526785714286 0.455729166666665  5.59151785714286 0.273437499999999  C 5.74776785714286 0.0911458333333326  5.9375 0  6.16071428571429 0  L 8.83928571428572 0  C 9.0625 0  9.25223214285714 0.0911458333333326  9.40848214285714 0.273437499999999  C 9.56473214285714 0.455729166666665  9.64285714285714 0.677083333333333  9.64285714285714 0.9375  L 9.64285714285714 4.0625  C 9.64285714285714 4.32291666666666  9.56473214285714 4.54427083333333  9.40848214285714 4.7265625  C 9.25223214285714 4.90885416666666  9.0625 5  8.83928571428572 5  L 8.03571428571428 5  L 8.03571428571428 6.875  L 12.3214285714286 6.875  C 12.6116071428571 6.875  12.8627232142857 6.99869791666667  13.0747767857143 7.24609375  C 13.2868303571429 7.49348958333333  13.3928571428571 7.78645833333333  13.3928571428571 8.125  L 13.3928571428571 10  L 14.1964285714286 10  C 14.4196428571429 10  14.609375 10.0911458333333  14.765625 10.2734375  Z " fill-rule="nonzero" fill="#000000" stroke="none" fill-opacity="0" transform="matrix(1 0 0 1 26 436 )" />
    <path d="M 14.765625 10.2734375  C 14.921875 10.4557291666667  15 10.6770833333333  15 10.9375  L 15 14.0625  C 15 14.3229166666667  14.921875 14.5442708333333  14.765625 14.7265625  C 14.609375 14.9088541666667  14.4196428571429 15  14.1964285714286 15  L 11.5178571428571 15  C 11.2946428571429 15  11.1049107142857 14.9088541666667  10.9486607142857 14.7265625  C 10.7924107142857 14.5442708333333  10.7142857142857 14.3229166666667  10.7142857142857 14.0625  L 10.7142857142857 10.9375  C 10.7142857142857 10.6770833333333  10.7924107142857 10.4557291666667  10.9486607142857 10.2734375  C 11.1049107142857 10.0911458333333  11.2946428571429 10  11.5178571428571 10  L 12.3214285714286 10  L 12.3214285714286 8.125  L 8.03571428571428 8.125  L 8.03571428571428 10  L 8.83928571428572 10  C 9.0625 10  9.25223214285714 10.0911458333333  9.40848214285714 10.2734375  C 9.56473214285714 10.4557291666667  9.64285714285714 10.6770833333333  9.64285714285714 10.9375  L 9.64285714285714 14.0625  C 9.64285714285714 14.3229166666667  9.56473214285714 14.5442708333333  9.40848214285714 14.7265625  C 9.25223214285714 14.9088541666667  9.0625 15  8.83928571428572 15  L 6.16071428571429 15  C 5.9375 15  5.74776785714286 14.9088541666667  5.59151785714286 14.7265625  C 5.43526785714286 14.5442708333333  5.35714285714286 14.3229166666667  5.35714285714286 14.0625  L 5.35714285714286 10.9375  C 5.35714285714286 10.6770833333333  5.43526785714286 10.4557291666667  5.59151785714286 10.2734375  C 5.74776785714286 10.0911458333333  5.9375 10  6.16071428571429 10  L 6.96428571428571 10  L 6.96428571428571 8.125  L 2.67857142857143 8.125  L 2.67857142857143 10  L 3.48214285714286 10  C 3.70535714285714 10  3.89508928571429 10.0911458333333  4.05133928571429 10.2734375  C 4.20758928571429 10.4557291666667  4.28571428571429 10.6770833333333  4.28571428571429 10.9375  L 4.28571428571429 14.0625  C 4.28571428571429 14.3229166666667  4.20758928571429 14.5442708333333  4.05133928571429 14.7265625  C 3.89508928571429 14.9088541666667  3.70535714285714 15  3.48214285714286 15  L 0.803571428571428 15  C 0.580357142857143 15  0.390625 14.9088541666667  0.234375 14.7265625  C 0.078125 14.5442708333333  0 14.3229166666667  0 14.0625  L 0 10.9375  C 0 10.6770833333333  0.078125 10.4557291666667  0.234375 10.2734375  C 0.390625 10.0911458333333  0.580357142857143 10  0.803571428571428 10  L 1.60714285714286 10  L 1.60714285714286 8.125  C 1.60714285714286 7.78645833333333  1.71316964285714 7.49348958333333  1.92522321428571 7.24609375  C 2.13727678571429 6.99869791666667  2.38839285714286 6.875  2.67857142857143 6.875  L 6.96428571428571 6.875  L 6.96428571428571 5  L 6.16071428571429 5  C 5.9375 5  5.74776785714286 4.90885416666666  5.59151785714286 4.7265625  C 5.43526785714286 4.54427083333333  5.35714285714286 4.32291666666666  5.35714285714286 4.0625  L 5.35714285714286 0.9375  C 5.35714285714286 0.677083333333333  5.43526785714286 0.455729166666665  5.59151785714286 0.273437499999999  C 5.74776785714286 0.0911458333333326  5.9375 0  6.16071428571429 0  L 8.83928571428572 0  C 9.0625 0  9.25223214285714 0.0911458333333326  9.40848214285714 0.273437499999999  C 9.56473214285714 0.455729166666665  9.64285714285714 0.677083333333333  9.64285714285714 0.9375  L 9.64285714285714 4.0625  C 9.64285714285714 4.32291666666666  9.56473214285714 4.54427083333333  9.40848214285714 4.7265625  C 9.25223214285714 4.90885416666666  9.0625 5  8.83928571428572 5  L 8.03571428571428 5  L 8.03571428571428 6.875  L 12.3214285714286 6.875  C 12.6116071428571 6.875  12.8627232142857 6.99869791666667  13.0747767857143 7.24609375  C 13.2868303571429 7.49348958333333  13.3928571428571 7.78645833333333  13.3928571428571 8.125  L 13.3928571428571 10  L 14.1964285714286 10  C 14.4196428571429 10  14.609375 10.0911458333333  14.765625 10.2734375  Z " stroke-width="2" stroke="#8087a7" fill="none" transform="matrix(1 0 0 1 26 436 )" mask="url(#clip51)" />
  </g>
</svg>