<?xml version="1.0" encoding="utf-8"?>
<svg version="1.1" xmlns:xlink="http://www.w3.org/1999/xlink" width="20px" height="15px" xmlns="http://www.w3.org/2000/svg">
  <defs>
    <mask fill="white" id="clip45">
      <path d="M 15.1692708333333 6.97265625  C 15.3342013888889 7.12109375  15.4166666666667 7.296875  15.4166666666667 7.5  C 15.4166666666667 7.703125  15.3342013888889 7.87890625  15.1692708333333 8.02734375  L 8.0859375 14.40234375  C 7.92100694444445 14.55078125  7.72569444444445 14.625  7.5 14.625  C 7.27430555555556 14.625  7.07899305555556 14.55078125  6.9140625 14.40234375  C 6.74913194444445 14.25390625  6.66666666666667 14.078125  6.66666666666667 13.875  L 6.66666666666667 10.5  L 0.833333333333333 10.5  C 0.607638888888889 10.5  0.412326388888889 10.42578125  0.247395833333333 10.27734375  C 0.0824652777777778 10.12890625  0 9.953125  0 9.75  L 0 5.25  C 0 5.046875  0.0824652777777778 4.87109375  0.247395833333333 4.72265625  C 0.412326388888889 4.57421875  0.607638888888889 4.5  0.833333333333333 4.5  L 6.66666666666667 4.5  L 6.66666666666667 1.125  C 6.66666666666667 0.921874999999998  6.74913194444445 0.746093749999998  6.9140625 0.597656249999999  C 7.07899305555556 0.449218749999999  7.27430555555556 0.375  7.5 0.375  C 7.72569444444445 0.375  7.92100694444445 0.449218749999999  8.0859375 0.597656249999999  L 15.1692708333333 6.97265625  Z M 18.8997395833333 0.990234375  C 19.6332465277778 1.650390625  20 2.4453125  20 3.375  L 20 11.625  C 20 12.5546875  19.6332465277778 13.349609375  18.8997395833333 14.009765625  C 18.1662326388889 14.669921875  17.2829861111111 15  16.25 15  L 12.0833333333333 15  C 11.9704861111111 15  11.8728298611111 14.962890625  11.7903645833333 14.888671875  C 11.7078993055556 14.814453125  11.6666666666667 14.7265625  11.6666666666667 14.625  C 11.6666666666667 14.59375  11.6623263888889 14.515625  11.6536458333333 14.390625  C 11.6449652777778 14.265625  11.6427951388889 14.162109375  11.6471354166667 14.080078125  C 11.6514756944444 13.998046875  11.6644965277778 13.90625  11.6861979166667 13.8046875  C 11.7078993055556 13.703125  11.7513020833333 13.626953125  11.81640625 13.576171875  C 11.8815104166667 13.525390625  11.9704861111111 13.5  12.0833333333333 13.5  L 16.25 13.5  C 16.8229166666667 13.5  17.3133680555556 13.31640625  17.7213541666667 12.94921875  C 18.1293402777778 12.58203125  18.3333333333333 12.140625  18.3333333333333 11.625  L 18.3333333333333 3.375  C 18.3333333333333 2.859375  18.1293402777778 2.41796875  17.7213541666667 2.05078125  C 17.3133680555556 1.68359375  16.8229166666667 1.5  16.25 1.5  L 12.5 1.5  L 12.3567708333333 1.5  L 12.1875 1.5  C 12.1875 1.5  12.1375868055556 1.49609375  12.0377604166667 1.48828125  C 11.9379340277778 1.48046875  11.8880208333333 1.46875  11.8880208333333 1.453125  C 11.8880208333333 1.4375  11.8532986111111 1.416015625  11.7838541666667 1.388671875  C 11.7144097222222 1.361328125  11.6840277777778 1.326171875  11.6927083333333 1.283203125  C 11.7013888888889 1.240234375  11.6927083333333 1.1875  11.6666666666667 1.125  C 11.6666666666667 1.09375  11.6623263888889 1.015625  11.6536458333333 0.890624999999999  C 11.6449652777778 0.765625  11.6427951388889 0.662109375000001  11.6471354166667 0.580078125  C 11.6514756944444 0.498046875  11.6644965277778 0.406249999999999  11.6861979166667 0.304687499999999  C 11.7078993055556 0.203124999999998  11.7513020833333 0.126953124999999  11.81640625 0.0761718750000007  C 11.8815104166667 0.0253906249999986  11.9704861111111 0  12.0833333333333 0  L 16.25 0  C 17.2829861111111 0  18.1662326388889 0.330078124999998  18.8997395833333 0.990234375  Z " fill-rule="evenodd" />
    </mask>
  </defs>
  <g transform="matrix(1 0 0 1 -919 -621 )">
    <path d="M 15.1692708333333 6.97265625  C 15.3342013888889 7.12109375  15.4166666666667 7.296875  15.4166666666667 7.5  C 15.4166666666667 7.703125  15.3342013888889 7.87890625  15.1692708333333 8.02734375  L 8.0859375 14.40234375  C 7.92100694444445 14.55078125  7.72569444444445 14.625  7.5 14.625  C 7.27430555555556 14.625  7.07899305555556 14.55078125  6.9140625 14.40234375  C 6.74913194444445 14.25390625  6.66666666666667 14.078125  6.66666666666667 13.875  L 6.66666666666667 10.5  L 0.833333333333333 10.5  C 0.607638888888889 10.5  0.412326388888889 10.42578125  0.247395833333333 10.27734375  C 0.0824652777777778 10.12890625  0 9.953125  0 9.75  L 0 5.25  C 0 5.046875  0.0824652777777778 4.87109375  0.247395833333333 4.72265625  C 0.412326388888889 4.57421875  0.607638888888889 4.5  0.833333333333333 4.5  L 6.66666666666667 4.5  L 6.66666666666667 1.125  C 6.66666666666667 0.921874999999998  6.74913194444445 0.746093749999998  6.9140625 0.597656249999999  C 7.07899305555556 0.449218749999999  7.27430555555556 0.375  7.5 0.375  C 7.72569444444445 0.375  7.92100694444445 0.449218749999999  8.0859375 0.597656249999999  L 15.1692708333333 6.97265625  Z M 18.8997395833333 0.990234375  C 19.6332465277778 1.650390625  20 2.4453125  20 3.375  L 20 11.625  C 20 12.5546875  19.6332465277778 13.349609375  18.8997395833333 14.009765625  C 18.1662326388889 14.669921875  17.2829861111111 15  16.25 15  L 12.0833333333333 15  C 11.9704861111111 15  11.8728298611111 14.962890625  11.7903645833333 14.888671875  C 11.7078993055556 14.814453125  11.6666666666667 14.7265625  11.6666666666667 14.625  C 11.6666666666667 14.59375  11.6623263888889 14.515625  11.6536458333333 14.390625  C 11.6449652777778 14.265625  11.6427951388889 14.162109375  11.6471354166667 14.080078125  C 11.6514756944444 13.998046875  11.6644965277778 13.90625  11.6861979166667 13.8046875  C 11.7078993055556 13.703125  11.7513020833333 13.626953125  11.81640625 13.576171875  C 11.8815104166667 13.525390625  11.9704861111111 13.5  12.0833333333333 13.5  L 16.25 13.5  C 16.8229166666667 13.5  17.3133680555556 13.31640625  17.7213541666667 12.94921875  C 18.1293402777778 12.58203125  18.3333333333333 12.140625  18.3333333333333 11.625  L 18.3333333333333 3.375  C 18.3333333333333 2.859375  18.1293402777778 2.41796875  17.7213541666667 2.05078125  C 17.3133680555556 1.68359375  16.8229166666667 1.5  16.25 1.5  L 12.5 1.5  L 12.3567708333333 1.5  L 12.1875 1.5  C 12.1875 1.5  12.1375868055556 1.49609375  12.0377604166667 1.48828125  C 11.9379340277778 1.48046875  11.8880208333333 1.46875  11.8880208333333 1.453125  C 11.8880208333333 1.4375  11.8532986111111 1.416015625  11.7838541666667 1.388671875  C 11.7144097222222 1.361328125  11.6840277777778 1.326171875  11.6927083333333 1.283203125  C 11.7013888888889 1.240234375  11.6927083333333 1.1875  11.6666666666667 1.125  C 11.6666666666667 1.09375  11.6623263888889 1.015625  11.6536458333333 0.890624999999999  C 11.6449652777778 0.765625  11.6427951388889 0.662109375000001  11.6471354166667 0.580078125  C 11.6514756944444 0.498046875  11.6644965277778 0.406249999999999  11.6861979166667 0.304687499999999  C 11.7078993055556 0.203124999999998  11.7513020833333 0.126953124999999  11.81640625 0.0761718750000007  C 11.8815104166667 0.0253906249999986  11.9704861111111 0  12.0833333333333 0  L 16.25 0  C 17.2829861111111 0  18.1662326388889 0.330078124999998  18.8997395833333 0.990234375  Z " fill-rule="nonzero" fill="#ffffff" stroke="none" fill-opacity="0" transform="matrix(1 0 0 1 919 621 )" />
    <path d="M 15.1692708333333 6.97265625  C 15.3342013888889 7.12109375  15.4166666666667 7.296875  15.4166666666667 7.5  C 15.4166666666667 7.703125  15.3342013888889 7.87890625  15.1692708333333 8.02734375  L 8.0859375 14.40234375  C 7.92100694444445 14.55078125  7.72569444444445 14.625  7.5 14.625  C 7.27430555555556 14.625  7.07899305555556 14.55078125  6.9140625 14.40234375  C 6.74913194444445 14.25390625  6.66666666666667 14.078125  6.66666666666667 13.875  L 6.66666666666667 10.5  L 0.833333333333333 10.5  C 0.607638888888889 10.5  0.412326388888889 10.42578125  0.247395833333333 10.27734375  C 0.0824652777777778 10.12890625  0 9.953125  0 9.75  L 0 5.25  C 0 5.046875  0.0824652777777778 4.87109375  0.247395833333333 4.72265625  C 0.412326388888889 4.57421875  0.607638888888889 4.5  0.833333333333333 4.5  L 6.66666666666667 4.5  L 6.66666666666667 1.125  C 6.66666666666667 0.921874999999998  6.74913194444445 0.746093749999998  6.9140625 0.597656249999999  C 7.07899305555556 0.449218749999999  7.27430555555556 0.375  7.5 0.375  C 7.72569444444445 0.375  7.92100694444445 0.449218749999999  8.0859375 0.597656249999999  L 15.1692708333333 6.97265625  Z " stroke-width="2" stroke="#ffffff" fill="none" transform="matrix(1 0 0 1 919 621 )" mask="url(#clip45)" />
    <path d="M 18.8997395833333 0.990234375  C 19.6332465277778 1.650390625  20 2.4453125  20 3.375  L 20 11.625  C 20 12.5546875  19.6332465277778 13.349609375  18.8997395833333 14.009765625  C 18.1662326388889 14.669921875  17.2829861111111 15  16.25 15  L 12.0833333333333 15  C 11.9704861111111 15  11.8728298611111 14.962890625  11.7903645833333 14.888671875  C 11.7078993055556 14.814453125  11.6666666666667 14.7265625  11.6666666666667 14.625  C 11.6666666666667 14.59375  11.6623263888889 14.515625  11.6536458333333 14.390625  C 11.6449652777778 14.265625  11.6427951388889 14.162109375  11.6471354166667 14.080078125  C 11.6514756944444 13.998046875  11.6644965277778 13.90625  11.6861979166667 13.8046875  C 11.7078993055556 13.703125  11.7513020833333 13.626953125  11.81640625 13.576171875  C 11.8815104166667 13.525390625  11.9704861111111 13.5  12.0833333333333 13.5  L 16.25 13.5  C 16.8229166666667 13.5  17.3133680555556 13.31640625  17.7213541666667 12.94921875  C 18.1293402777778 12.58203125  18.3333333333333 12.140625  18.3333333333333 11.625  L 18.3333333333333 3.375  C 18.3333333333333 2.859375  18.1293402777778 2.41796875  17.7213541666667 2.05078125  C 17.3133680555556 1.68359375  16.8229166666667 1.5  16.25 1.5  L 12.5 1.5  L 12.3567708333333 1.5  L 12.1875 1.5  C 12.1875 1.5  12.1375868055556 1.49609375  12.0377604166667 1.48828125  C 11.9379340277778 1.48046875  11.8880208333333 1.46875  11.8880208333333 1.453125  C 11.8880208333333 1.4375  11.8532986111111 1.416015625  11.7838541666667 1.388671875  C 11.7144097222222 1.361328125  11.6840277777778 1.326171875  11.6927083333333 1.283203125  C 11.7013888888889 1.240234375  11.6927083333333 1.1875  11.6666666666667 1.125  C 11.6666666666667 1.09375  11.6623263888889 1.015625  11.6536458333333 0.890624999999999  C 11.6449652777778 0.765625  11.6427951388889 0.662109375000001  11.6471354166667 0.580078125  C 11.6514756944444 0.498046875  11.6644965277778 0.406249999999999  11.6861979166667 0.304687499999999  C 11.7078993055556 0.203124999999998  11.7513020833333 0.126953124999999  11.81640625 0.0761718750000007  C 11.8815104166667 0.0253906249999986  11.9704861111111 0  12.0833333333333 0  L 16.25 0  C 17.2829861111111 0  18.1662326388889 0.330078124999998  18.8997395833333 0.990234375  Z " stroke-width="2" stroke="#ffffff" fill="none" transform="matrix(1 0 0 1 919 621 )" mask="url(#clip45)" />
  </g>
</svg>