<?xml version="1.0" encoding="utf-8"?>
<svg version="1.1" xmlns:xlink="http://www.w3.org/1999/xlink" width="15px" height="15px" xmlns="http://www.w3.org/2000/svg">
  <defs>
    <mask fill="white" id="clip52">
      <path d="M 9.05949519230769 7.314453125  C 9.17367788461539 7.19075520833333  9.23076923076923 7.04427083333333  9.23076923076923 6.875  C 9.23076923076923 6.70572916666667  9.17367788461539 6.55924479166667  9.05949519230769 6.435546875  C 8.9453125 6.31184895833333  8.81009615384616 6.25  8.65384615384615 6.25  L 6.34615384615385 6.25  C 6.18990384615385 6.25  6.0546875 6.31184895833333  5.94050480769231 6.435546875  C 5.82632211538462 6.55924479166667  5.76923076923077 6.70572916666667  5.76923076923077 6.875  C 5.76923076923077 7.04427083333333  5.82632211538462 7.19075520833333  5.94050480769231 7.314453125  C 6.0546875 7.43815104166667  6.18990384615385 7.5  6.34615384615385 7.5  L 8.65384615384615 7.5  C 8.81009615384616 7.5  8.9453125 7.43815104166667  9.05949519230769 7.314453125  Z M 14.2518028846154 4.560546875  C 14.3659855769231 4.68424479166667  14.4230769230769 4.83072916666667  14.4230769230769 5  L 14.4230769230769 14.375  C 14.4230769230769 14.5442708333333  14.3659855769231 14.6907552083333  14.2518028846154 14.814453125  C 14.1376201923077 14.9381510416667  14.0024038461538 15  13.8461538461538 15  L 1.15384615384615 15  C 0.997596153846154 15  0.862379807692308 14.9381510416667  0.748197115384615 14.814453125  C 0.634014423076923 14.6907552083333  0.576923076923077 14.5442708333333  0.576923076923077 14.375  L 0.576923076923077 5  C 0.576923076923077 4.83072916666667  0.634014423076923 4.68424479166667  0.748197115384615 4.560546875  C 0.862379807692308 4.43684895833333  0.997596153846154 4.375  1.15384615384615 4.375  L 13.8461538461538 4.375  C 14.0024038461538 4.375  14.1376201923077 4.43684895833333  14.2518028846154 4.560546875  Z M 14.8287259615385 0.185546874999999  C 14.9429086538462 0.309244791666665  15 0.455729166666665  15 0.624999999999999  L 15 3.125  C 15 3.29427083333333  14.9429086538462 3.44075520833333  14.8287259615385 3.564453125  C 14.7145432692308 3.68815104166667  14.5793269230769 3.75  14.4230769230769 4  L 0.576923076923077 4  C 0.420673076923077 3.75  0.285456730769231 3.68815104166667  0.171274038461538 3.564453125  C 0.0570913461538462 3.44075520833333  0 3.29427083333333  0 3.125  L 0 0.624999999999999  C 0 0.455729166666665  0.0570913461538462 0.309244791666665  0.171274038461538 0.185546874999999  C 0.285456730769231 0.0618489583333326  0.420673076923077 0  0.576923076923077 0  L 14.4230769230769 0  C 14.5793269230769 0  14.7145432692308 0.0618489583333326  14.8287259615385 0.185546874999999  Z " fill-rule="evenodd" />
    </mask>
  </defs>
  <g transform="matrix(1 0 0 1 -26 -164 )">
    <path d="M 9.05949519230769 7.314453125  C 9.17367788461539 7.19075520833333  9.23076923076923 7.04427083333333  9.23076923076923 6.875  C 9.23076923076923 6.70572916666667  9.17367788461539 6.55924479166667  9.05949519230769 6.435546875  C 8.9453125 6.31184895833333  8.81009615384616 6.25  8.65384615384615 6.25  L 6.34615384615385 6.25  C 6.18990384615385 6.25  6.0546875 6.31184895833333  5.94050480769231 6.435546875  C 5.82632211538462 6.55924479166667  5.76923076923077 6.70572916666667  5.76923076923077 6.875  C 5.76923076923077 7.04427083333333  5.82632211538462 7.19075520833333  5.94050480769231 7.314453125  C 6.0546875 7.43815104166667  6.18990384615385 7.5  6.34615384615385 7.5  L 8.65384615384615 7.5  C 8.81009615384616 7.5  8.9453125 7.43815104166667  9.05949519230769 7.314453125  Z M 14.2518028846154 4.560546875  C 14.3659855769231 4.68424479166667  14.4230769230769 4.83072916666667  14.4230769230769 5  L 14.4230769230769 14.375  C 14.4230769230769 14.5442708333333  14.3659855769231 14.6907552083333  14.2518028846154 14.814453125  C 14.1376201923077 14.9381510416667  14.0024038461538 15  13.8461538461538 15  L 1.15384615384615 15  C 0.997596153846154 15  0.862379807692308 14.9381510416667  0.748197115384615 14.814453125  C 0.634014423076923 14.6907552083333  0.576923076923077 14.5442708333333  0.576923076923077 14.375  L 0.576923076923077 5  C 0.576923076923077 4.83072916666667  0.634014423076923 4.68424479166667  0.748197115384615 4.560546875  C 0.862379807692308 4.43684895833333  0.997596153846154 4.375  1.15384615384615 4.375  L 13.8461538461538 4.375  C 14.0024038461538 4.375  14.1376201923077 4.43684895833333  14.2518028846154 4.560546875  Z M 14.8287259615385 0.185546874999999  C 14.9429086538462 0.309244791666665  15 0.455729166666665  15 0.624999999999999  L 15 3.125  C 15 3.29427083333333  14.9429086538462 3.44075520833333  14.8287259615385 3.564453125  C 14.7145432692308 3.68815104166667  14.5793269230769 3.75  14.4230769230769 4  L 0.576923076923077 4  C 0.420673076923077 3.75  0.285456730769231 3.68815104166667  0.171274038461538 3.564453125  C 0.0570913461538462 3.44075520833333  0 3.29427083333333  0 3.125  L 0 0.624999999999999  C 0 0.455729166666665  0.0570913461538462 0.309244791666665  0.171274038461538 0.185546874999999  C 0.285456730769231 0.0618489583333326  0.420673076923077 0  0.576923076923077 0  L 14.4230769230769 0  C 14.5793269230769 0  14.7145432692308 0.0618489583333326  14.8287259615385 0.185546874999999  Z " fill-rule="nonzero" fill="#000000" stroke="none" fill-opacity="0" transform="matrix(1 0 0 1 26 164 )" />
    <path d="M 9.05949519230769 7.314453125  C 9.17367788461539 7.19075520833333  9.23076923076923 7.04427083333333  9.23076923076923 6.875  C 9.23076923076923 6.70572916666667  9.17367788461539 6.55924479166667  9.05949519230769 6.435546875  C 8.9453125 6.31184895833333  8.81009615384616 6.25  8.65384615384615 6.25  L 6.34615384615385 6.25  C 6.18990384615385 6.25  6.0546875 6.31184895833333  5.94050480769231 6.435546875  C 5.82632211538462 6.55924479166667  5.76923076923077 6.70572916666667  5.76923076923077 6.875  C 5.76923076923077 7.04427083333333  5.82632211538462 7.19075520833333  5.94050480769231 7.314453125  C 6.0546875 7.43815104166667  6.18990384615385 7.5  6.34615384615385 7.5  L 8.65384615384615 7.5  C 8.81009615384616 7.5  8.9453125 7.43815104166667  9.05949519230769 7.314453125  Z " stroke-width="2" stroke="#000000" fill="none" transform="matrix(1 0 0 1 26 164 )" mask="url(#clip52)" />
    <path d="M 14.2518028846154 4.560546875  C 14.3659855769231 4.68424479166667  14.4230769230769 4.83072916666667  14.4230769230769 5  L 14.4230769230769 14.375  C 14.4230769230769 14.5442708333333  14.3659855769231 14.6907552083333  14.2518028846154 14.814453125  C 14.1376201923077 14.9381510416667  14.0024038461538 15  13.8461538461538 15  L 1.15384615384615 15  C 0.997596153846154 15  0.862379807692308 14.9381510416667  0.748197115384615 14.814453125  C 0.634014423076923 14.6907552083333  0.576923076923077 14.5442708333333  0.576923076923077 14.375  L 0.576923076923077 5  C 0.576923076923077 4.83072916666667  0.634014423076923 4.68424479166667  0.748197115384615 4.560546875  C 0.862379807692308 4.43684895833333  0.997596153846154 4.375  1.15384615384615 4.375  L 13.8461538461538 4.375  C 14.0024038461538 4.375  14.1376201923077 4.43684895833333  14.2518028846154 4.560546875  Z " stroke-width="2" stroke="#000000" fill="none" transform="matrix(1 0 0 1 26 164 )" mask="url(#clip52)" />
    <path d="M 14.8287259615385 0.185546874999999  C 14.9429086538462 0.309244791666665  15 0.455729166666665  15 0.624999999999999  L 15 3.125  C 15 3.29427083333333  14.9429086538462 3.44075520833333  14.8287259615385 3.564453125  C 14.7145432692308 3.68815104166667  14.5793269230769 3.75  14.4230769230769 4  L 0.576923076923077 4  C 0.420673076923077 3.75  0.285456730769231 3.68815104166667  0.171274038461538 3.564453125  C 0.0570913461538462 3.44075520833333  0 3.29427083333333  0 3.125  L 0 0.624999999999999  C 0 0.455729166666665  0.0570913461538462 0.309244791666665  0.171274038461538 0.185546874999999  C 0.285456730769231 0.0618489583333326  0.420673076923077 0  0.576923076923077 0  L 14.4230769230769 0  C 14.5793269230769 0  14.7145432692308 0.0618489583333326  14.8287259615385 0.185546874999999  Z " stroke-width="2" stroke="#000000" fill="none" transform="matrix(1 0 0 1 26 164 )" mask="url(#clip52)" />
  </g>
</svg>