<?xml version="1.0" encoding="utf-8"?>
<svg version="1.1" xmlns:xlink="http://www.w3.org/1999/xlink" width="15px" height="15px" xmlns="http://www.w3.org/2000/svg">
  <defs>
    <mask fill="white" id="clip50">
      <path d="M 11.7103794642857 8.837890625  C 11.7606026785714 8.896484375  11.7857142857143 8.97135416666666  11.7857142857143 9.0625  L 11.7857142857143 12.1875  C 11.7857142857143 12.9622395833333  11.5499441964286 13.6246744791667  11.0784040178571 14.1748046875  C 10.6068638392857 14.7249348958333  10.0390625 15  9.375 15  L 2.41071428571429 15  C 1.74665178571429 15  1.17885044642857 14.7249348958333  0.707310267857143 14.1748046875  C 0.235770089285714 13.6246744791667  0 12.9622395833333  0 12.1875  L 0 4.0625  C 0 3.28776041666667  0.235770089285714 2.62532552083333  0.707310267857143 2.0751953125  C 1.17885044642857 1.52506510416666  1.74665178571429 1.25  2.41071428571429 1.25  L 8.30357142857143 1.25  C 8.38169642857143 1.25  8.44587053571428 1.279296875  8.49609375 1.337890625  C 8.54631696428572 1.396484375  8.57142857142857 1.47135416666667  8.57142857142857 1.5625  L 8.57142857142857 2.1875  C 8.57142857142857 2.27864583333333  8.54631696428572 2.353515625  8.49609375 2.412109375  C 8.44587053571428 2.470703125  8.38169642857143 2.5  8.30357142857143 2.5  L 2.41071428571429 2.5  C 2.04241071428571 2.5  1.72712053571429 2.65299479166666  1.46484375 2.958984375  C 1.20256696428571 3.26497395833333  1.07142857142857 3.6328125  1.07142857142857 4.0625  L 1.07142857142857 12.1875  C 1.07142857142857 12.6171875  1.20256696428571 12.9850260416667  1.46484375 13.291015625  C 1.72712053571429 13.5970052083333  2.04241071428571 13.75  2.41071428571429 13.75  L 9.375 13.75  C 9.74330357142857 13.75  10.05859375 13.5970052083333  10.3208705357143 13.291015625  C 10.5831473214286 12.9850260416667  10.7142857142857 12.6171875  10.7142857142857 12.1875  L 10.7142857142857 9.0625  C 10.7142857142857 8.97135416666666  10.7393973214286 8.896484375  10.7896205357143 8.837890625  C 10.83984375 8.779296875  10.9040178571429 8.75  10.9821428571429 8.75  L 11.5178571428571 8.75  C 11.5959821428571 8.75  11.66015625 8.779296875  11.7103794642857 8.837890625  Z M 14.8409598214286 0.185546874999999  C 14.9469866071429 0.309244791666665  15 0.455729166666665  15 0.624999999999999  L 15 5.625  C 15 5.79427083333333  14.9469866071429 5.94075520833333  14.8409598214286 6.064453125  C 14.7349330357143 6.18815104166667  14.609375 6.25  14.4642857142857 6.25  C 14.3191964285714 6.25  14.1936383928571 6.18815104166667  14.0876116071429 6.064453125  L 12.6143973214286 4.345703125  L 7.15680803571429 10.712890625  C 7.10100446428571 10.7779947916667  7.03683035714286 10.810546875  6.96428571428571 10.810546875  C 6.89174107142857 10.810546875  6.82756696428571 10.7779947916667  6.77176339285714 10.712890625  L 5.81752232142857 9.599609375  C 5.76171875 9.53450520833333  5.73381696428571 9.45963541666667  5.73381696428571 9.375  C 5.73381696428571 9.29036458333333  5.76171875 9.21549479166667  5.81752232142857 9.150390625  L 11.2751116071429 2.783203125  L 9.80189732142857 1.064453125  C 9.69587053571429 0.940755208333333  9.64285714285714 0.794270833333333  9.64285714285714 0.624999999999999  C 9.64285714285714 0.455729166666665  9.69587053571429 0.309244791666665  9.80189732142857 0.185546874999999  C 9.90792410714286 0.0618489583333343  10.0334821428571 0  10.1785714285714 0  L 14.4642857142857 0  C 14.609375 0  14.7349330357143 0.0618489583333343  14.8409598214286 0.185546874999999  Z " fill-rule="evenodd" />
    </mask>
  </defs>
  <g transform="matrix(1 0 0 1 -46 -845 )">
    <path d="M 11.7103794642857 8.837890625  C 11.7606026785714 8.896484375  11.7857142857143 8.97135416666666  11.7857142857143 9.0625  L 11.7857142857143 12.1875  C 11.7857142857143 12.9622395833333  11.5499441964286 13.6246744791667  11.0784040178571 14.1748046875  C 10.6068638392857 14.7249348958333  10.0390625 15  9.375 15  L 2.41071428571429 15  C 1.74665178571429 15  1.17885044642857 14.7249348958333  0.707310267857143 14.1748046875  C 0.235770089285714 13.6246744791667  0 12.9622395833333  0 12.1875  L 0 4.0625  C 0 3.28776041666667  0.235770089285714 2.62532552083333  0.707310267857143 2.0751953125  C 1.17885044642857 1.52506510416666  1.74665178571429 1.25  2.41071428571429 1.25  L 8.30357142857143 1.25  C 8.38169642857143 1.25  8.44587053571428 1.279296875  8.49609375 1.337890625  C 8.54631696428572 1.396484375  8.57142857142857 1.47135416666667  8.57142857142857 1.5625  L 8.57142857142857 2.1875  C 8.57142857142857 2.27864583333333  8.54631696428572 2.353515625  8.49609375 2.412109375  C 8.44587053571428 2.470703125  8.38169642857143 2.5  8.30357142857143 2.5  L 2.41071428571429 2.5  C 2.04241071428571 2.5  1.72712053571429 2.65299479166666  1.46484375 2.958984375  C 1.20256696428571 3.26497395833333  1.07142857142857 3.6328125  1.07142857142857 4.0625  L 1.07142857142857 12.1875  C 1.07142857142857 12.6171875  1.20256696428571 12.9850260416667  1.46484375 13.291015625  C 1.72712053571429 13.5970052083333  2.04241071428571 13.75  2.41071428571429 13.75  L 9.375 13.75  C 9.74330357142857 13.75  10.05859375 13.5970052083333  10.3208705357143 13.291015625  C 10.5831473214286 12.9850260416667  10.7142857142857 12.6171875  10.7142857142857 12.1875  L 10.7142857142857 9.0625  C 10.7142857142857 8.97135416666666  10.7393973214286 8.896484375  10.7896205357143 8.837890625  C 10.83984375 8.779296875  10.9040178571429 8.75  10.9821428571429 8.75  L 11.5178571428571 8.75  C 11.5959821428571 8.75  11.66015625 8.779296875  11.7103794642857 8.837890625  Z M 14.8409598214286 0.185546874999999  C 14.9469866071429 0.309244791666665  15 0.455729166666665  15 0.624999999999999  L 15 5.625  C 15 5.79427083333333  14.9469866071429 5.94075520833333  14.8409598214286 6.064453125  C 14.7349330357143 6.18815104166667  14.609375 6.25  14.4642857142857 6.25  C 14.3191964285714 6.25  14.1936383928571 6.18815104166667  14.0876116071429 6.064453125  L 12.6143973214286 4.345703125  L 7.15680803571429 10.712890625  C 7.10100446428571 10.7779947916667  7.03683035714286 10.810546875  6.96428571428571 10.810546875  C 6.89174107142857 10.810546875  6.82756696428571 10.7779947916667  6.77176339285714 10.712890625  L 5.81752232142857 9.599609375  C 5.76171875 9.53450520833333  5.73381696428571 9.45963541666667  5.73381696428571 9.375  C 5.73381696428571 9.29036458333333  5.76171875 9.21549479166667  5.81752232142857 9.150390625  L 11.2751116071429 2.783203125  L 9.80189732142857 1.064453125  C 9.69587053571429 0.940755208333333  9.64285714285714 0.794270833333333  9.64285714285714 0.624999999999999  C 9.64285714285714 0.455729166666665  9.69587053571429 0.309244791666665  9.80189732142857 0.185546874999999  C 9.90792410714286 0.0618489583333343  10.0334821428571 0  10.1785714285714 0  L 14.4642857142857 0  C 14.609375 0  14.7349330357143 0.0618489583333343  14.8409598214286 0.185546874999999  Z " fill-rule="nonzero" fill="#000000" stroke="none" fill-opacity="0" transform="matrix(1 0 0 1 46 845 )" />
    <path d="M 11.7103794642857 8.837890625  C 11.7606026785714 8.896484375  11.7857142857143 8.97135416666666  11.7857142857143 9.0625  L 11.7857142857143 12.1875  C 11.7857142857143 12.9622395833333  11.5499441964286 13.6246744791667  11.0784040178571 14.1748046875  C 10.6068638392857 14.7249348958333  10.0390625 15  9.375 15  L 2.41071428571429 15  C 1.74665178571429 15  1.17885044642857 14.7249348958333  0.707310267857143 14.1748046875  C 0.235770089285714 13.6246744791667  0 12.9622395833333  0 12.1875  L 0 4.0625  C 0 3.28776041666667  0.235770089285714 2.62532552083333  0.707310267857143 2.0751953125  C 1.17885044642857 1.52506510416666  1.74665178571429 1.25  2.41071428571429 1.25  L 8.30357142857143 1.25  C 8.38169642857143 1.25  8.44587053571428 1.279296875  8.49609375 1.337890625  C 8.54631696428572 1.396484375  8.57142857142857 1.47135416666667  8.57142857142857 1.5625  L 8.57142857142857 2.1875  C 8.57142857142857 2.27864583333333  8.54631696428572 2.353515625  8.49609375 2.412109375  C 8.44587053571428 2.470703125  8.38169642857143 2.5  8.30357142857143 2.5  L 2.41071428571429 2.5  C 2.04241071428571 2.5  1.72712053571429 2.65299479166666  1.46484375 2.958984375  C 1.20256696428571 3.26497395833333  1.07142857142857 3.6328125  1.07142857142857 4.0625  L 1.07142857142857 12.1875  C 1.07142857142857 12.6171875  1.20256696428571 12.9850260416667  1.46484375 13.291015625  C 1.72712053571429 13.5970052083333  2.04241071428571 13.75  2.41071428571429 13.75  L 9.375 13.75  C 9.74330357142857 13.75  10.05859375 13.5970052083333  10.3208705357143 13.291015625  C 10.5831473214286 12.9850260416667  10.7142857142857 12.6171875  10.7142857142857 12.1875  L 10.7142857142857 9.0625  C 10.7142857142857 8.97135416666666  10.7393973214286 8.896484375  10.7896205357143 8.837890625  C 10.83984375 8.779296875  10.9040178571429 8.75  10.9821428571429 8.75  L 11.5178571428571 8.75  C 11.5959821428571 8.75  11.66015625 8.779296875  11.7103794642857 8.837890625  Z " stroke-width="2" stroke="#8087a7" fill="none" transform="matrix(1 0 0 1 46 845 )" mask="url(#clip50)" />
    <path d="M 14.8409598214286 0.185546874999999  C 14.9469866071429 0.309244791666665  15 0.455729166666665  15 0.624999999999999  L 15 5.625  C 15 5.79427083333333  14.9469866071429 5.94075520833333  14.8409598214286 6.064453125  C 14.7349330357143 6.18815104166667  14.609375 6.25  14.4642857142857 6.25  C 14.3191964285714 6.25  14.1936383928571 6.18815104166667  14.0876116071429 6.064453125  L 12.6143973214286 4.345703125  L 7.15680803571429 10.712890625  C 7.10100446428571 10.7779947916667  7.03683035714286 10.810546875  6.96428571428571 10.810546875  C 6.89174107142857 10.810546875  6.82756696428571 10.7779947916667  6.77176339285714 10.712890625  L 5.81752232142857 9.599609375  C 5.76171875 9.53450520833333  5.73381696428571 9.45963541666667  5.73381696428571 9.375  C 5.73381696428571 9.29036458333333  5.76171875 9.21549479166667  5.81752232142857 9.150390625  L 11.2751116071429 2.783203125  L 9.80189732142857 1.064453125  C 9.69587053571429 0.940755208333333  9.64285714285714 0.794270833333333  9.64285714285714 0.624999999999999  C 9.64285714285714 0.455729166666665  9.69587053571429 0.309244791666665  9.80189732142857 0.185546874999999  C 9.90792410714286 0.0618489583333343  10.0334821428571 0  10.1785714285714 0  L 14.4642857142857 0  C 14.609375 0  14.7349330357143 0.0618489583333343  14.8409598214286 0.185546874999999  Z " stroke-width="2" stroke="#8087a7" fill="none" transform="matrix(1 0 0 1 46 845 )" mask="url(#clip50)" />
  </g>
</svg>